<?xml version="1.0" encoding="UTF-8" standalone="no"?>
<svg
   xmlns:dc="http://purl.org/dc/elements/1.1/"
   xmlns:cc="http://creativecommons.org/ns#"
   xmlns:rdf="http://www.w3.org/1999/02/22-rdf-syntax-ns#"
   xmlns:svg="http://www.w3.org/2000/svg"
   xmlns="http://www.w3.org/2000/svg"
   xmlns:sodipodi="http://sodipodi.sourceforge.net/DTD/sodipodi-0.dtd"
   xmlns:inkscape="http://www.inkscape.org/namespaces/inkscape"
   version="1.1"
   id="svg2"
   xml:space="preserve"
   width="588.21332"
   height="584.47998"
   viewBox="0 0 588.21332 584.47998"
   sodipodi:docname="2887.eps"><metadata
     id="metadata8"><rdf:RDF><cc:Work
         rdf:about=""><dc:format>image/svg+xml</dc:format><dc:type
           rdf:resource="http://purl.org/dc/dcmitype/StillImage" /></cc:Work></rdf:RDF></metadata><defs
     id="defs6" /><sodipodi:namedview
     pagecolor="#ffffff"
     bordercolor="#666666"
     borderopacity="1"
     objecttolerance="10"
     gridtolerance="10"
     guidetolerance="10"
     inkscape:pageopacity="0"
     inkscape:pageshadow="2"
     inkscape:window-width="640"
     inkscape:window-height="480"
     id="namedview4" /><g
     id="g10"
     inkscape:groupmode="layer"
     inkscape:label="ink_ext_XXXXXX"
     transform="matrix(1.3333333,0,0,-1.3333333,0,584.48)"><g
       id="g12"
       transform="scale(0.1)"><path
         d="m 3755.76,1879 c -69.78,0 -137.03,20.68 -194.46,59.79 -9.71,6.6 -12.21,19.8 -5.6,29.49 6.6,9.69 19.81,12.18 29.48,5.6 50.37,-34.31 109.35,-52.43 170.58,-52.43 167.35,0 303.5,136.15 303.5,303.51 0,167.36 -136.15,303.51 -303.5,303.51 -167.37,0 -303.52,-136.15 -303.52,-303.51 0,-66.38 21.02,-129.4 60.81,-182.27 7.04,-9.37 5.16,-22.68 -4.2,-29.73 -9.4,-7.03 -22.67,-5.15 -29.73,4.2 -45.35,60.29 -69.33,132.14 -69.33,207.8 0,190.76 155.2,345.96 345.97,345.96 190.75,0 345.95,-155.2 345.95,-345.96 0,-190.76 -155.2,-345.96 -345.95,-345.96"
         style="fill:#000000;fill-opacity:1;fill-rule:nonzero;stroke:none"
         id="path14" /><path
         d="m 3507.42,2203.73 c -11.71,0 -21.22,9.51 -21.22,21.23 0,148.63 120.91,269.55 269.56,269.55 11.71,0 21.22,-9.5 21.22,-21.22 0,-11.73 -9.51,-21.23 -21.22,-21.23 -125.23,0 -227.11,-101.88 -227.11,-227.1 0,-11.72 -9.51,-21.23 -21.23,-21.23"
         style="fill:#000000;fill-opacity:1;fill-rule:nonzero;stroke:none"
         id="path16" /><path
         d="m 3755.76,2570.92 c 84.17,0 164.5,-30.53 227.09,-85.13 v 153.05 h -454.2 v -153.05 c 62.57,54.6 142.9,85.13 227.11,85.13 z m -248.34,-158.14 c -2.44,0 -4.91,0.42 -7.27,1.29 -8.38,3.05 -13.95,11.02 -13.95,19.93 v 226.06 c 0,11.73 9.51,21.22 21.22,21.22 h 496.66 c 11.72,0 21.23,-9.49 21.23,-21.22 V 2434 c 0,-8.91 -5.58,-16.88 -13.95,-19.93 -8.33,-3.04 -17.78,-0.56 -23.52,6.25 -57.92,68.74 -142.51,108.15 -232.08,108.15 -89.59,0 -174.19,-39.41 -232.1,-108.15 -4.12,-4.87 -10.1,-7.54 -16.24,-7.54"
         style="fill:#000000;fill-opacity:1;fill-rule:nonzero;stroke:none"
         id="path18" /><path
         d="m 4202.52,2004.22 c -33.93,0 -61.54,-27.6 -61.54,-61.55 0,-33.94 27.61,-61.54 61.54,-61.54 33.95,0 61.56,27.6 61.56,61.54 0,33.95 -27.61,61.55 -61.56,61.55 z m 0,-165.54 c -57.33,0 -103.99,46.66 -103.99,103.99 0,57.34 46.66,104 103.99,104 57.35,0 104.01,-46.66 104.01,-104 0,-57.33 -46.66,-103.99 -104.01,-103.99"
         style="fill:#000000;fill-opacity:1;fill-rule:nonzero;stroke:none"
         id="path20" /><path
         d="m 4202.52,1972.39 c -11.72,0 -21.22,9.5 -21.22,21.22 v 31.84 c 0,11.72 9.5,21.22 21.22,21.22 11.73,0 21.23,-9.5 21.23,-21.22 v -31.84 c 0,-11.72 -9.5,-21.22 -21.23,-21.22"
         style="fill:#000000;fill-opacity:1;fill-rule:nonzero;stroke:none"
         id="path22" /><path
         d="m 3308.98,2004.22 c -33.95,0 -61.56,-27.6 -61.56,-61.55 0,-33.94 27.61,-61.54 61.56,-61.54 33.94,0 61.55,27.6 61.55,61.54 0,33.95 -27.61,61.55 -61.55,61.55 z m 0,-165.54 c -57.35,0 -104.01,46.66 -104.01,103.99 0,57.34 46.66,104 104.01,104 57.33,0 103.99,-46.66 103.99,-104 0,-57.33 -46.66,-103.99 -103.99,-103.99"
         style="fill:#000000;fill-opacity:1;fill-rule:nonzero;stroke:none"
         id="path24" /><path
         d="m 3308.98,1972.39 c -11.73,0 -21.23,9.5 -21.23,21.22 v 31.84 c 0,11.72 9.5,21.22 21.23,21.22 11.72,0 21.22,-9.5 21.22,-21.22 v -31.84 c 0,-11.72 -9.5,-21.22 -21.22,-21.22"
         style="fill:#000000;fill-opacity:1;fill-rule:nonzero;stroke:none"
         id="path26" /><path
         d="m 4273.63,1730.42 h -288.9 c -29.31,0 -57.26,7.96 -80.84,23.01 -39.73,25.31 -92.34,39.26 -148.13,39.26 -55.83,0 -108.43,-13.95 -148.17,-39.26 -23.57,-15.05 -51.53,-23.01 -80.83,-23.01 h -288.89 c -76.07,0 -137.95,61.89 -137.95,137.96 v 674.94 c 0,76.07 61.88,137.96 137.95,137.96 h 1035.76 c 76.08,0 137.96,-61.89 137.96,-137.96 v -36.86 c 0,-11.72 -9.51,-21.22 -21.23,-21.22 -11.72,0 -21.22,9.5 -21.22,21.22 v 36.86 c 0,52.67 -42.85,95.52 -95.51,95.52 H 3237.87 c -52.66,0 -95.5,-42.85 -95.5,-95.52 v -674.94 c 0,-52.65 42.84,-95.51 95.5,-95.51 h 288.89 c 21.19,0 41.25,5.66 58.02,16.34 46.46,29.61 107.17,45.93 170.98,45.93 63.76,0 124.49,-16.32 170.96,-45.93 16.75,-10.68 36.8,-16.34 58.01,-16.34 h 288.9 c 52.66,0 95.51,42.86 95.51,95.51 v 519.23 c 0,11.72 9.5,21.22 21.22,21.22 11.72,0 21.23,-9.5 21.23,-21.22 v -519.23 c 0,-76.07 -61.88,-137.96 -137.96,-137.96"
         style="fill:#000000;fill-opacity:1;fill-rule:nonzero;stroke:none"
         id="path28" /><path
         d="m 3321.64,857.91 h 756.58 v 397.22 h -756.58 z m 777.8,-42.441 h -799.02 c -11.73,0 -21.23,9.5 -21.23,21.222 v 439.659 c 0,11.73 9.5,21.23 21.23,21.23 h 799.02 c 11.73,0 21.23,-9.5 21.23,-21.23 V 836.691 c 0,-11.722 -9.5,-21.222 -21.23,-21.222"
         style="fill:#000000;fill-opacity:1;fill-rule:nonzero;stroke:none"
         id="path30" /><path
         d="m 4099.44,113.949 h -799.02 c -11.73,0 -21.23,9.5 -21.23,21.223 V 450.57 c 0,11.731 9.5,21.231 21.23,21.231 11.72,0 21.22,-9.5 21.22,-21.231 V 156.398 h 756.58 V 744.75 H 3321.64 V 550.871 c 0,-11.723 -9.5,-21.223 -21.22,-21.223 -11.73,0 -21.23,9.5 -21.23,21.223 v 215.098 c 0,11.73 9.5,21.23 21.23,21.23 h 799.02 c 11.73,0 21.23,-9.5 21.23,-21.23 V 135.172 c 0,-11.723 -9.5,-21.223 -21.23,-21.223"
         style="fill:#000000;fill-opacity:1;fill-rule:nonzero;stroke:none"
         id="path32" /><path
         d="m 3363.69,787.199 h 714.53 v 28.27 h -714.53 z m 735.75,-42.449 h -756.97 c -11.72,0 -21.23,9.5 -21.23,21.219 v 70.722 c 0,11.719 9.51,21.219 21.23,21.219 h 756.97 c 11.73,0 21.23,-9.5 21.23,-21.219 v -70.722 c 0,-11.719 -9.5,-21.219 -21.23,-21.219"
         style="fill:#000000;fill-opacity:1;fill-rule:nonzero;stroke:none"
         id="path34" /><path
         d="m 4120.67,857.91 h 114.29 v 397.22 h -114.29 z m 135.51,-42.441 h -156.74 c -11.72,0 -21.22,9.5 -21.22,21.222 v 439.659 c 0,11.73 9.5,21.23 21.22,21.23 h 156.74 c 11.73,0 21.23,-9.5 21.23,-21.23 V 836.691 c 0,-11.722 -9.5,-21.222 -21.23,-21.222"
         style="fill:#000000;fill-opacity:1;fill-rule:nonzero;stroke:none"
         id="path36" /><path
         d="m 4120.67,156.398 h 114.29 V 744.75 h -114.29 z m 135.51,-42.449 h -156.74 c -11.72,0 -21.22,9.5 -21.22,21.223 v 630.797 c 0,11.73 9.5,21.23 21.22,21.23 h 156.74 c 11.73,0 21.23,-9.5 21.23,-21.23 V 135.172 c 0,-11.723 -9.5,-21.223 -21.23,-21.223"
         style="fill:#000000;fill-opacity:1;fill-rule:nonzero;stroke:none"
         id="path38" /><path
         d="m 4120.67,787.199 h 72.22 v 28.27 h -72.22 z m 93.44,-42.449 h -114.67 c -11.72,0 -21.22,9.5 -21.22,21.219 v 70.722 c 0,11.719 9.5,21.219 21.22,21.219 h 114.67 c 11.73,0 21.23,-9.5 21.23,-21.219 v -70.722 c 0,-11.719 -9.5,-21.219 -21.23,-21.219"
         style="fill:#000000;fill-opacity:1;fill-rule:nonzero;stroke:none"
         id="path40" /><path
         d="m 3235.62,66.5586 h 750.83 V 113.949 H 3235.62 Z M 4007.68,24.1094 H 3214.4 c -11.73,0 -21.23,9.5 -21.23,21.2304 v 89.8322 c 0,11.726 9.5,21.226 21.23,21.226 h 793.28 c 11.72,0 21.22,-9.5 21.22,-21.226 V 45.3398 c 0,-11.7304 -9.5,-21.2304 -21.22,-21.2304"
         style="fill:#000000;fill-opacity:1;fill-rule:nonzero;stroke:none"
         id="path42" /><path
         d="m 4028.9,66.5586 h 293.97 V 113.949 H 4028.9 Z m 315.2,-42.4492 h -336.42 c -11.73,0 -21.23,9.5 -21.23,21.2304 v 89.8322 c 0,11.726 9.5,21.226 21.23,21.226 h 336.42 c 11.72,0 21.23,-9.5 21.23,-21.226 V 45.3398 c 0,-11.7304 -9.51,-21.2304 -21.23,-21.2304"
         style="fill:#000000;fill-opacity:1;fill-rule:nonzero;stroke:none"
         id="path44" /><path
         d="m 3167.39,349.949 c -11.73,0 -21.22,9.512 -21.22,21.231 v 167.672 c 0,67.886 55.21,123.109 123.09,123.109 h 31.16 c 11.72,0 21.22,-9.512 21.22,-21.231 0,-11.722 -9.5,-21.218 -21.22,-21.218 h -31.16 c -44.47,0 -80.65,-36.192 -80.65,-80.66 V 371.18 c 0,-11.719 -9.51,-21.231 -21.22,-21.231"
         style="fill:#000000;fill-opacity:1;fill-rule:nonzero;stroke:none"
         id="path46" /><path
         d="m 4175.9,572.102 c -11.73,0 -21.23,9.507 -21.23,21.218 v 32.551 c 0,11.731 9.5,21.231 21.23,21.231 11.72,0 21.22,-9.5 21.22,-21.231 V 593.32 c 0,-11.711 -9.5,-21.218 -21.22,-21.218"
         style="fill:#000000;fill-opacity:1;fill-rule:nonzero;stroke:none"
         id="path48" /><path
         d="m 4177.81,274.949 c -11.73,0 -21.23,9.512 -21.23,21.242 v 107.52 c 0,11.719 9.5,21.23 21.23,21.23 11.71,0 21.22,-9.511 21.22,-21.23 v -107.52 c 0,-11.73 -9.51,-21.242 -21.22,-21.242"
         style="fill:#000000;fill-opacity:1;fill-rule:nonzero;stroke:none"
         id="path50" /><path
         d="m 4177.81,1014.28 c -11.73,0 -21.23,9.5 -21.23,21.23 v 50.94 c 0,11.72 9.5,21.22 21.23,21.22 11.71,0 21.22,-9.5 21.22,-21.22 v -50.94 c 0,-11.73 -9.51,-21.23 -21.22,-21.23"
         style="fill:#000000;fill-opacity:1;fill-rule:nonzero;stroke:none"
         id="path52" /><path
         d="m 428.188,2067.88 c -25.446,0 -46.149,-20.69 -46.149,-46.15 v -116.38 c 0,-25.45 20.703,-46.15 46.149,-46.15 h 814.642 c 25.45,0 46.15,20.7 46.15,46.15 v 116.38 c 0,25.46 -20.7,46.15 -46.15,46.15 z M 1242.83,1816.75 H 428.188 c -48.848,0 -88.594,39.75 -88.594,88.6 v 116.38 c 0,48.85 39.746,88.6 88.594,88.6 h 814.642 c 48.85,0 88.6,-39.75 88.6,-88.6 v -116.38 c 0,-48.85 -39.75,-88.6 -88.6,-88.6"
         style="fill:#000000;fill-opacity:1;fill-rule:nonzero;stroke:none"
         id="path54" /><path
         d="m 88.5977,2067.88 c -25.4454,0 -46.1485,-20.69 -46.1485,-46.15 v -116.38 c 0,-25.45 20.7031,-46.15 46.1485,-46.15 H 352.582 c -8.238,13.45 -12.988,29.25 -12.988,46.15 v 116.38 c 0,16.9 4.75,32.71 12.988,46.15 z M 428.188,1816.75 H 88.5977 C 39.7461,1816.75 0,1856.5 0,1905.35 v 116.38 c 0,48.85 39.7461,88.6 88.5977,88.6 H 428.188 c 11.722,0 21.222,-9.51 21.222,-21.22 0,-11.72 -9.5,-21.23 -21.222,-21.23 -25.446,0 -46.149,-20.69 -46.149,-46.15 v -116.38 c 0,-25.45 20.703,-46.15 46.149,-46.15 11.722,0 21.222,-9.5 21.222,-21.23 0,-11.72 -9.5,-21.22 -21.222,-21.22"
         style="fill:#000000;fill-opacity:1;fill-rule:nonzero;stroke:none"
         id="path56" /><path
         d="M 999.465,1976.62 H 671.547 c -11.723,0 -21.223,9.5 -21.223,21.22 v 91.27 c 0,11.71 9.5,21.22 21.223,21.22 11.723,0 21.226,-9.51 21.226,-21.22 v -70.04 h 285.469 v 70.04 c 0,11.71 9.5,21.22 21.223,21.22 11.725,0 21.225,-9.51 21.225,-21.22 v -91.27 c 0,-11.72 -9.5,-21.22 -21.225,-21.22"
         style="fill:#000000;fill-opacity:1;fill-rule:nonzero;stroke:none"
         id="path58" /><path
         d="m 568.582,1920.02 c -11.723,0 -21.219,9.51 -21.219,21.22 v 31.84 H 446.184 c -11.719,0 -21.219,9.5 -21.219,21.23 0,11.72 9.5,21.22 21.219,21.22 h 122.398 c 11.723,0 21.227,-9.5 21.227,-21.22 v -53.07 c 0,-11.71 -9.504,-21.22 -21.227,-21.22"
         style="fill:#000000;fill-opacity:1;fill-rule:nonzero;stroke:none"
         id="path60" /><path
         d="m 446.184,1920.02 c -11.719,0 -21.219,9.51 -21.219,21.22 v 49.52 c 0,11.72 9.5,21.23 21.219,21.23 11.722,0 21.226,-9.51 21.226,-21.23 v -49.52 c 0,-11.71 -9.504,-21.22 -21.226,-21.22"
         style="fill:#000000;fill-opacity:1;fill-rule:nonzero;stroke:none"
         id="path62" /><path
         d="m 507.383,1887.47 c -11.727,0 -21.227,9.51 -21.227,21.23 v 82.06 c 0,11.72 9.5,21.23 21.227,21.23 11.722,0 21.222,-9.51 21.222,-21.23 v -82.06 c 0,-11.72 -9.5,-21.23 -21.222,-21.23"
         style="fill:#000000;fill-opacity:1;fill-rule:nonzero;stroke:none"
         id="path64" /><path
         d="m 705.508,1899.5 h -33.961 c -11.723,0 -21.223,9.5 -21.223,21.22 0,11.73 9.5,21.23 21.223,21.23 h 33.961 c 11.722,0 21.222,-9.5 21.222,-21.23 0,-11.72 -9.5,-21.22 -21.222,-21.22"
         style="fill:#000000;fill-opacity:1;fill-rule:nonzero;stroke:none"
         id="path66" /><path
         d="m 861.508,1899.5 h -52.004 c -11.723,0 -21.219,9.5 -21.219,21.22 0,11.73 9.496,21.23 21.219,21.23 h 52.004 c 11.722,0 21.226,-9.5 21.226,-21.23 0,-11.72 -9.504,-21.22 -21.226,-21.22"
         style="fill:#000000;fill-opacity:1;fill-rule:nonzero;stroke:none"
         id="path68" /><path
         d="m 999.465,1899.5 h -33.957 c -11.727,0 -21.227,9.5 -21.227,21.22 0,11.73 9.5,21.23 21.227,21.23 h 33.957 c 11.725,0 21.225,-9.5 21.225,-21.23 0,-11.72 -9.5,-21.22 -21.225,-21.22"
         style="fill:#000000;fill-opacity:1;fill-rule:nonzero;stroke:none"
         id="path70" /><path
         d="m 1166.4,2009.86 c -22.23,0 -40.32,-18.09 -40.32,-40.32 0,-22.24 18.09,-40.33 40.32,-40.33 22.24,0 40.33,18.09 40.33,40.33 0,22.23 -18.09,40.32 -40.33,40.32 z m 0,-123.1 c -45.64,0 -82.77,37.13 -82.77,82.78 0,45.65 37.13,82.77 82.77,82.77 45.64,0 82.78,-37.12 82.78,-82.77 0,-45.65 -37.14,-82.78 -82.78,-82.78"
         style="fill:#000000;fill-opacity:1;fill-rule:nonzero;stroke:none"
         id="path72" /><path
         d="m 618.105,2110.33 h 307.051 v 45.29 H 618.105 Z m 328.274,-42.45 H 596.883 c -11.723,0 -21.227,9.51 -21.227,21.23 v 87.73 c 0,11.72 9.504,21.23 21.227,21.23 h 349.496 c 11.726,0 21.226,-9.51 21.226,-21.23 v -87.73 c 0,-11.72 -9.5,-21.23 -21.226,-21.23"
         style="fill:#000000;fill-opacity:1;fill-rule:nonzero;stroke:none"
         id="path74" /><path
         d="m 489.34,2110.33 h 86.316 v 45.29 H 489.34 Z m 107.543,-42.45 H 468.117 c -11.722,0 -21.222,9.51 -21.222,21.23 v 87.73 c 0,11.72 9.5,21.23 21.222,21.23 h 128.766 c 11.719,0 21.222,-9.51 21.222,-21.23 v -87.73 c 0,-11.72 -9.503,-21.23 -21.222,-21.23"
         style="fill:#000000;fill-opacity:1;fill-rule:nonzero;stroke:none"
         id="path76" /><path
         d="m 589.809,2198.07 h 304.214 v 189.24 H 589.809 Z m 325.437,-42.45 H 568.582 c -11.723,0 -21.219,9.49 -21.219,21.22 v 231.69 c 0,11.73 9.496,21.23 21.219,21.23 h 346.664 c 11.727,0 21.227,-9.5 21.227,-21.23 v -231.69 c 0,-11.73 -9.5,-21.22 -21.227,-21.22"
         style="fill:#000000;fill-opacity:1;fill-rule:nonzero;stroke:none"
         id="path78" /><path
         d="m 528.605,2198.07 h 18.758 v 189.24 h -18.758 z m 39.977,-42.45 h -61.199 c -11.727,0 -21.227,9.49 -21.227,21.22 v 231.69 c 0,11.73 9.5,21.23 21.227,21.23 h 61.199 c 11.723,0 21.227,-9.5 21.227,-21.23 v -231.69 c 0,-11.73 -9.504,-21.22 -21.227,-21.22"
         style="fill:#000000;fill-opacity:1;fill-rule:nonzero;stroke:none"
         id="path80" /><path
         d="m 741.91,2248.29 c -11.722,0 -21.222,9.5 -21.222,21.23 v 55.18 c 0,11.72 9.5,21.22 21.222,21.22 11.727,0 21.227,-9.5 21.227,-21.22 v -55.18 c 0,-11.73 -9.5,-21.23 -21.227,-21.23"
         style="fill:#000000;fill-opacity:1;fill-rule:nonzero;stroke:none"
         id="path82" /><path
         d="m 1077.97,2258.9 c -2.02,0 -4.06,0.29 -6.07,0.89 -8.99,2.67 -15.15,10.95 -15.15,20.34 v 215.07 c 0,11.73 9.5,21.23 21.22,21.23 11.73,0 21.23,-9.5 21.23,-21.23 v -153.58 c 5.68,1.55 11.97,0.76 17.28,-2.7 9.8,-6.42 12.55,-19.58 6.13,-29.38 l -26.88,-41.04 c -3.99,-6.1 -10.74,-9.6 -17.76,-9.6"
         style="fill:#000000;fill-opacity:1;fill-rule:nonzero;stroke:none"
         id="path84" /><path
         d="m 1077.97,2258.9 c -7.02,0 -13.76,3.5 -17.75,9.6 l -26.89,41.04 c -6.42,9.8 -3.68,22.96 6.12,29.37 5.32,3.5 11.58,4.3 17.3,2.71 v 153.58 c 0,11.73 9.5,21.23 21.22,21.23 11.73,0 21.23,-9.5 21.23,-21.23 v -215.07 c 0,-9.39 -6.16,-17.66 -15.16,-20.34 -2.01,-0.6 -4.05,-0.89 -6.07,-0.89"
         style="fill:#000000;fill-opacity:1;fill-rule:nonzero;stroke:none"
         id="path86" /><path
         d="m 387.695,2337.43 c -2.023,0 -4.062,0.29 -6.07,0.89 -8.996,2.68 -15.152,10.95 -15.152,20.34 v 215.08 c 0,11.72 9.496,21.22 21.222,21.22 11.723,0 21.223,-9.5 21.223,-21.22 v -153.59 c 5.68,1.6 11.973,0.79 17.297,-2.7 9.808,-6.42 12.543,-19.58 6.117,-29.38 l -26.883,-41.04 c -3.992,-6.1 -10.734,-9.6 -17.754,-9.6"
         style="fill:#000000;fill-opacity:1;fill-rule:nonzero;stroke:none"
         id="path88" /><path
         d="m 387.695,2337.43 c -7.023,0 -13.761,3.5 -17.761,9.6 l -26.875,41.04 c -6.418,9.8 -3.676,22.96 6.125,29.38 5.316,3.48 11.605,4.27 17.289,2.71 v 153.58 c 0,11.72 9.496,21.22 21.222,21.22 11.723,0 21.223,-9.5 21.223,-21.22 v -215.08 c 0,-9.39 -6.156,-17.66 -15.156,-20.34 -2.004,-0.6 -4.043,-0.89 -6.067,-0.89"
         style="fill:#000000;fill-opacity:1;fill-rule:nonzero;stroke:none"
         id="path90" /><path
         d="m 1747.2,3655.53 367.9,-367.9 558.59,558.59 -367.89,367.9 z m 367.9,-419.14 c -5.43,0 -10.86,2.07 -15.01,6.22 l -397.91,397.91 c -3.98,3.98 -6.21,9.37 -6.21,15.01 0,5.63 2.23,11.02 6.21,15 l 588.61,588.61 c 8.3,8.29 21.72,8.29 30.01,0 l 397.91,-397.91 c 3.99,-3.98 6.22,-9.38 6.22,-15.01 0,-5.63 -2.23,-11.02 -6.22,-15.01 l -588.61,-588.6 c -4.14,-4.15 -9.57,-6.22 -15,-6.22"
         style="fill:#000000;fill-opacity:1;fill-rule:nonzero;stroke:none"
         id="path92" /><path
         d="m 2215.36,4123.69 -377.73,-377.74 c -19.28,-19.28 -19.27,-50.64 0,-69.92 l 297.97,-297.97 c 19.29,-19.27 50.64,-19.27 69.93,0 l 377.73,377.73 c 19.27,19.28 19.27,50.66 0,69.92 l -297.97,297.98 c -19.28,19.28 -50.66,19.27 -69.93,0 z m -44.8,-802.52 c -23.53,0 -47.06,8.96 -64.97,26.87 l -297.97,297.98 c -35.83,35.83 -35.83,94.12 0,129.94 l 377.73,377.74 c 35.83,35.84 94.14,35.84 129.96,0 l 297.96,-297.97 c 35.82,-35.82 35.82,-94.12 0,-129.95 l -377.72,-377.74 c -17.92,-17.91 -41.45,-26.87 -64.99,-26.87"
         style="fill:#000000;fill-opacity:1;fill-rule:nonzero;stroke:none"
         id="path94" /><path
         d="m 2335.81,4244.13 367.9,-367.89 81.25,81.26 c 21.04,21.04 21.04,55.29 0,76.34 l -291.55,291.56 c -21.02,21.03 -55.28,21.05 -76.35,-0.01 z M 2703.71,3825 c -5.62,0 -11.02,2.23 -15.01,6.21 l -397.91,397.92 c -8.29,8.28 -8.29,21.72 0,30.01 l 96.26,96.27 c 37.62,37.59 98.81,37.58 136.37,0 l 291.55,-291.55 c 37.59,-37.6 37.59,-98.78 0,-136.37 l -96.26,-96.28 c -3.97,-3.98 -9.36,-6.21 -15,-6.21"
         style="fill:#000000;fill-opacity:1;fill-rule:nonzero;stroke:none"
         id="path96" /><path
         d="m 2509.86,4168.29 c -5.44,0 -10.86,2.07 -15.01,6.22 l -64.19,64.18 c -8.29,8.29 -8.29,21.72 0,30.01 8.29,8.3 21.73,8.3 30.02,0 l 64.19,-64.18 c 8.29,-8.28 8.29,-21.72 0,-30.01 -4.15,-4.15 -9.57,-6.22 -15.01,-6.22"
         style="fill:#000000;fill-opacity:1;fill-rule:nonzero;stroke:none"
         id="path98" /><path
         d="m 2445.67,4168.29 c -5.44,0 -10.86,2.07 -15.01,6.22 -8.29,8.29 -8.29,21.73 0,30.01 l 64.19,64.18 c 8.29,8.3 21.73,8.3 30.02,0 8.29,-8.29 8.29,-21.72 0,-30.01 l -64.19,-64.18 c -4.15,-4.15 -9.57,-6.22 -15.01,-6.22"
         style="fill:#000000;fill-opacity:1;fill-rule:nonzero;stroke:none"
         id="path100" /><path
         d="m 2600.34,4117.69 c -4.79,0 -9.57,-1.83 -13.2,-5.46 -7.26,-7.27 -7.26,-19.1 0,-26.37 7.27,-7.26 19.12,-7.28 26.39,0 7.25,7.27 7.25,19.1 0,26.37 -3.63,3.63 -8.41,5.46 -13.19,5.46 z m -0.01,-79.71 c -15.64,0 -31.29,5.95 -43.2,17.87 -11.54,11.54 -17.89,26.87 -17.89,43.2 0,16.31 6.35,31.65 17.89,43.2 23.1,23.07 63.34,23.06 86.41,0 23.83,-23.82 23.83,-62.58 0,-86.4 -11.91,-11.92 -27.56,-17.87 -43.21,-17.87"
         style="fill:#000000;fill-opacity:1;fill-rule:nonzero;stroke:none"
         id="path102" /><path
         d="m 2694.46,3943.84 c -15.64,0 -31.29,5.95 -43.2,17.86 -8.29,8.29 -8.29,21.73 0,30.02 8.29,8.29 21.72,8.29 30.01,0 7.29,-7.29 19.14,-7.26 26.39,0 7.26,7.27 7.26,19.1 0,26.37 -7.25,7.23 -19.1,7.27 -26.39,0 -8.29,-8.29 -21.72,-8.29 -30.01,0 -8.29,8.29 -8.29,21.72 0,30.02 23.85,23.82 62.63,23.8 86.41,0 11.54,-11.55 17.89,-26.88 17.89,-43.21 0,-16.32 -6.35,-31.65 -17.89,-43.2 -11.91,-11.91 -27.56,-17.86 -43.21,-17.86"
         style="fill:#000000;fill-opacity:1;fill-rule:nonzero;stroke:none"
         id="path104" /><path
         d="m 1717.19,3625.51 -81.26,-81.26 c -10.2,-10.2 -15.81,-23.76 -15.81,-38.17 0,-14.42 5.61,-27.97 15.81,-38.17 l 291.55,-291.55 c 20.38,-20.38 55.93,-20.4 76.34,0 l 81.27,81.26 z m 248.46,-507.42 c -25.75,0 -49.97,10.04 -68.18,28.25 l -291.55,291.56 c -18.22,18.21 -28.25,42.42 -28.25,68.18 0,25.76 10.03,49.97 28.25,68.18 l 96.26,96.27 c 7.96,7.96 22.06,7.96 30.02,0 l 397.9,-397.91 c 3.99,-3.98 6.22,-9.37 6.22,-15 0,-5.63 -2.23,-11.03 -6.22,-15.01 l -96.27,-96.27 c -18.21,-18.21 -42.43,-28.25 -68.18,-28.25"
         style="fill:#000000;fill-opacity:1;fill-rule:nonzero;stroke:none"
         id="path106" /><path
         d="m 1771.8,3430.25 c -5.43,0 -10.86,2.07 -15.01,6.21 l -64.17,64.18 c -8.3,8.29 -8.3,21.73 0,30.02 8.29,8.29 21.71,8.29 30.01,0 l 64.17,-64.18 c 8.3,-8.29 8.3,-21.73 0,-30.02 -4.14,-4.14 -9.57,-6.21 -15,-6.21"
         style="fill:#000000;fill-opacity:1;fill-rule:nonzero;stroke:none"
         id="path108" /><path
         d="m 1707.62,3430.25 c -5.43,0 -10.86,2.07 -15,6.21 -8.3,8.29 -8.3,21.73 0,30.02 l 64.17,64.18 c 8.29,8.29 21.72,8.29 30.01,0 8.3,-8.29 8.3,-21.73 0,-30.02 l -64.17,-64.18 c -4.15,-4.14 -9.58,-6.21 -15.01,-6.21"
         style="fill:#000000;fill-opacity:1;fill-rule:nonzero;stroke:none"
         id="path110" /><path
         d="m 1862.28,3379.62 c -4.77,0 -9.55,-1.81 -13.18,-5.45 -7.28,-7.27 -7.28,-19.1 0,-26.37 7.28,-7.27 19.09,-7.27 26.37,0 7.27,7.27 7.27,19.1 0,26.37 -3.64,3.64 -8.42,5.45 -13.19,5.45 z m 0,-79.7 c -15.65,0 -31.29,5.96 -43.2,17.87 -23.82,23.82 -23.82,62.58 0,86.4 23.8,23.82 62.58,23.84 86.4,0 23.82,-23.82 23.82,-62.58 0,-86.4 -11.91,-11.91 -27.55,-17.87 -43.2,-17.87"
         style="fill:#000000;fill-opacity:1;fill-rule:nonzero;stroke:none"
         id="path112" /><path
         d="m 1956.41,3205.77 c -16.31,0 -31.66,6.34 -43.19,17.89 -23.82,23.81 -23.82,62.57 0,86.39 8.29,8.29 21.72,8.29 30.01,0 8.29,-8.29 8.29,-21.72 0,-30.01 -7.27,-7.27 -7.27,-19.1 0,-26.37 7.28,-7.27 19.09,-7.27 26.37,0 7.27,7.27 7.27,19.1 0,26.37 -8.29,8.29 -8.29,21.72 0,30.01 8.29,8.29 21.72,8.29 30.01,0 23.83,-23.82 23.83,-62.58 0,-86.39 -11.54,-11.55 -26.87,-17.89 -43.2,-17.89"
         style="fill:#000000;fill-opacity:1;fill-rule:nonzero;stroke:none"
         id="path114" /><path
         d="m 2075.21,3594.41 c -11.73,0 -21.22,9.5 -21.22,21.23 v 86.59 c 0,11.73 9.49,21.23 21.22,21.23 11.72,0 21.22,-9.5 21.22,-21.23 v -86.59 c 0,-11.73 -9.5,-21.23 -21.22,-21.23"
         style="fill:#000000;fill-opacity:1;fill-rule:nonzero;stroke:none"
         id="path116" /><path
         d="m 2168.31,3490.31 c -11.72,0 -21.22,9.5 -21.22,21.22 v 429.08 c 0,11.73 9.5,21.23 21.22,21.23 11.73,0 21.23,-9.5 21.23,-21.23 v -429.08 c 0,-11.72 -9.5,-21.22 -21.23,-21.22"
         style="fill:#000000;fill-opacity:1;fill-rule:nonzero;stroke:none"
         id="path118" /><path
         d="m 2340.69,3714.02 c -11.72,0 -21.22,9.5 -21.22,21.22 v 168.85 c 0,11.72 9.5,21.23 21.22,21.23 11.73,0 21.23,-9.51 21.23,-21.23 v -168.85 c 0,-11.72 -9.5,-21.22 -21.23,-21.22"
         style="fill:#000000;fill-opacity:1;fill-rule:nonzero;stroke:none"
         id="path120" /><path
         d="m 3216.17,3616.03 c -10.66,0 -19.33,-8.68 -19.33,-19.34 v -173.5 c 0,-10.66 8.67,-19.33 19.33,-19.33 h 1079.15 c 10.66,0 19.33,8.67 19.33,19.33 v 173.5 c 0,10.66 -8.67,19.34 -19.33,19.34 z M 4295.32,3361.41 H 3216.17 c -34.08,0 -61.78,27.72 -61.78,61.78 v 173.5 c 0,34.07 27.7,61.79 61.78,61.79 h 1079.15 c 34.08,0 61.78,-27.72 61.78,-61.79 v -173.5 c 0,-34.06 -27.7,-61.78 -61.78,-61.78"
         style="fill:#000000;fill-opacity:1;fill-rule:nonzero;stroke:none"
         id="path122" /><path
         d="m 3317.82,3547.65 c -11.31,0 -20.52,-9.2 -20.52,-20.52 0,-11.32 9.21,-20.52 20.52,-20.52 h 319.77 c 11.33,0 20.53,9.2 20.53,20.52 0,11.32 -9.2,20.52 -20.53,20.52 z m 319.77,-83.49 h -319.77 c -34.73,0 -62.96,28.25 -62.96,62.97 0,34.73 28.23,62.97 62.96,62.97 h 319.77 c 34.73,0 62.98,-28.24 62.98,-62.97 0,-34.72 -28.25,-62.97 -62.98,-62.97"
         style="fill:#000000;fill-opacity:1;fill-rule:nonzero;stroke:none"
         id="path124" /><path
         d="m 3902.2,3543.91 c -18.72,0 -33.95,-15.23 -33.95,-33.96 0,-18.74 15.23,-33.97 33.95,-33.97 18.72,0 33.96,15.23 33.96,33.97 0,18.73 -15.24,33.96 -33.96,33.96 z m 0,-110.37 c -42.13,0 -76.41,34.27 -76.41,76.41 0,42.13 34.28,76.41 76.41,76.41 42.14,0 76.41,-34.28 76.41,-76.41 0,-42.14 -34.27,-76.41 -76.41,-76.41"
         style="fill:#000000;fill-opacity:1;fill-rule:nonzero;stroke:none"
         id="path126" /><path
         d="m 4140.98,3433.54 c -42.14,0 -76.42,34.27 -76.42,76.41 0,11.72 9.51,21.22 21.23,21.22 11.72,0 21.22,-9.5 21.22,-21.22 0,-18.74 15.25,-33.97 33.97,-33.97 18.72,0 33.95,15.23 33.95,33.97 0,18.73 -15.23,33.96 -33.95,33.96 -11.73,0 -21.23,9.5 -21.23,21.22 0,11.73 9.5,21.23 21.23,21.23 42.13,0 76.41,-34.28 76.41,-76.41 0,-42.14 -34.28,-76.41 -76.41,-76.41"
         style="fill:#000000;fill-opacity:1;fill-rule:nonzero;stroke:none"
         id="path128" /><path
         d="M 3350.36,3361.41 V 3337 c 0,-7.31 5.96,-13.27 13.27,-13.27 h 79.6 c 7.3,0 13.26,5.96 13.26,13.27 v 24.41 z m 92.87,-80.13 h -79.6 c -30.73,0 -55.72,25 -55.72,55.72 v 45.63 c 0,11.73 9.51,21.23 21.23,21.23 h 148.57 c 11.73,0 21.23,-9.5 21.23,-21.23 V 3337 c 0,-30.72 -24.99,-55.72 -55.71,-55.72"
         style="fill:#000000;fill-opacity:1;fill-rule:nonzero;stroke:none"
         id="path130" /><path
         d="M 4055.01,3361.41 V 3337 c 0,-7.31 5.96,-13.27 13.27,-13.27 h 79.59 c 7.32,0 13.27,5.96 13.27,13.27 v 24.41 z m 92.86,-80.13 h -79.59 c -30.73,0 -55.71,25 -55.71,55.72 v 45.63 c 0,11.73 9.5,21.23 21.22,21.23 h 148.58 c 11.72,0 21.22,-9.5 21.22,-21.23 V 3337 c 0,-30.72 -24.99,-55.72 -55.72,-55.72"
         style="fill:#000000;fill-opacity:1;fill-rule:nonzero;stroke:none"
         id="path132" /><path
         d="m 3595.85,3658.48 h 319.78 v 26.41 h -319.78 z m 341.01,-42.45 h -362.23 c -11.73,0 -21.23,9.5 -21.23,21.22 v 68.87 c 0,11.73 9.5,21.23 21.23,21.23 h 362.23 c 11.72,0 21.22,-9.5 21.22,-21.23 v -68.87 c 0,-11.72 -9.5,-21.22 -21.22,-21.22"
         style="fill:#000000;fill-opacity:1;fill-rule:nonzero;stroke:none"
         id="path134" /><path
         d="m 3587.35,3727.35 h 336.78 c 56.3,48.92 88.44,119.14 88.44,193.85 0,141.61 -115.21,256.82 -256.81,256.82 -141.62,0 -256.82,-115.21 -256.82,-256.82 0,-74.71 32.13,-144.95 88.41,-193.85 z m 344.55,-42.46 h -352.31 c -4.91,0 -9.67,1.71 -13.46,4.82 -69.68,57.15 -109.64,141.52 -109.64,231.49 0,165.01 134.25,299.27 299.27,299.27 165.01,0 299.25,-134.26 299.25,-299.27 0,-89.96 -39.96,-174.34 -109.65,-231.49 -3.79,-3.11 -8.55,-4.82 -13.46,-4.82"
         style="fill:#000000;fill-opacity:1;fill-rule:nonzero;stroke:none"
         id="path136" /><path
         d="m 3554.15,3895.73 c -11.61,0 -21.09,9.34 -21.23,20.98 l -0.03,4.49 c 0,122.89 99.97,222.86 222.87,222.86 11.71,0 21.22,-9.5 21.22,-21.22 0,-11.73 -9.51,-21.23 -21.22,-21.23 -99.48,0 -180.42,-80.93 -180.42,-180.41 l 0.03,-3.99 c 0.14,-11.73 -9.24,-21.34 -20.97,-21.48 -0.08,0 -0.17,0 -0.25,0"
         style="fill:#000000;fill-opacity:1;fill-rule:nonzero;stroke:none"
         id="path138" /><path
         d="m 3755.76,3947.73 c -14.63,0 -26.54,-11.9 -26.54,-26.53 0,-14.62 11.91,-26.53 26.54,-26.53 14.61,0 26.52,11.91 26.52,26.53 0,14.63 -11.91,26.53 -26.52,26.53 z m 0,-95.5 c -38.04,0 -68.99,30.93 -68.99,68.97 0,38.04 30.95,68.98 68.99,68.98 38.03,0 68.97,-30.94 68.97,-68.98 0,-38.04 -30.94,-68.97 -68.97,-68.97"
         style="fill:#000000;fill-opacity:1;fill-rule:nonzero;stroke:none"
         id="path140" /><path
         d="m 4262.29,3813.13 c -4,0 -8.03,1.11 -11.61,3.47 -9.82,6.42 -12.55,19.57 -6.14,29.38 l 26.88,41.03 c 6.43,9.8 19.62,12.54 29.38,6.12 9.82,-6.42 12.56,-19.57 6.15,-29.38 l -26.89,-41.03 c -4.08,-6.22 -10.86,-9.59 -17.77,-9.59"
         style="fill:#000000;fill-opacity:1;fill-rule:nonzero;stroke:none"
         id="path142" /><path
         d="m 4262.32,3813.13 c -6.92,0 -13.69,3.37 -17.78,9.59 l -26.87,41.03 c -6.42,9.81 -3.68,22.96 6.13,29.38 9.77,6.43 22.93,3.69 29.39,-6.12 l 26.87,-41.03 c 6.42,-9.81 3.68,-22.96 -6.13,-29.38 -3.59,-2.36 -7.61,-3.47 -11.61,-3.47"
         style="fill:#000000;fill-opacity:1;fill-rule:nonzero;stroke:none"
         id="path144" /><path
         d="m 4262.31,3847.08 c -11.73,0 -21.23,9.51 -21.23,21.23 0,91.28 -74.27,165.55 -165.55,165.55 -11.73,0 -21.23,9.5 -21.23,21.22 0,11.72 9.5,21.23 21.23,21.23 114.7,0 208,-93.31 208,-208 0,-11.72 -9.5,-21.23 -21.22,-21.23"
         style="fill:#000000;fill-opacity:1;fill-rule:nonzero;stroke:none"
         id="path146" /><path
         d="m 3249.2,3813.13 c -6.91,0 -13.7,3.37 -17.78,9.59 l -26.88,41.03 c -6.41,9.81 -3.68,22.96 6.14,29.38 9.76,6.43 22.94,3.69 29.38,-6.12 l 26.89,-41.03 c 6.41,-9.81 3.67,-22.96 -6.15,-29.38 -3.58,-2.36 -7.6,-3.47 -11.6,-3.47"
         style="fill:#000000;fill-opacity:1;fill-rule:nonzero;stroke:none"
         id="path148" /><path
         d="m 3249.16,3813.13 c -3.99,0 -8.02,1.11 -11.62,3.47 -9.79,6.42 -12.54,19.58 -6.12,29.38 l 26.9,41.03 c 6.43,9.8 19.58,12.54 29.4,6.12 9.8,-6.43 12.54,-19.58 6.12,-29.38 l -26.89,-41.03 c -4.09,-6.22 -10.87,-9.59 -17.79,-9.59"
         style="fill:#000000;fill-opacity:1;fill-rule:nonzero;stroke:none"
         id="path150" /><path
         d="m 3249.18,3847.08 c -11.72,0 -21.22,9.51 -21.22,21.23 0,114.69 93.3,208 208,208 11.72,0 21.22,-9.51 21.22,-21.23 0,-11.72 -9.5,-21.22 -21.22,-21.22 -91.28,0 -165.56,-74.27 -165.56,-165.55 0,-11.72 -9.5,-21.23 -21.22,-21.23"
         style="fill:#000000;fill-opacity:1;fill-rule:nonzero;stroke:none"
         id="path152" /><path
         d="m 2210.45,2416.47 c -120.59,0 -218.69,98.1 -218.69,218.69 0,120.59 98.1,218.69 218.69,218.69 120.59,0 218.68,-98.1 218.68,-218.69 0,-17.84 -2.14,-35.59 -6.41,-52.76 -2.82,-11.38 -14.26,-18.29 -25.71,-15.5 -11.37,2.82 -18.3,14.32 -15.48,25.7 3.41,13.83 5.15,28.16 5.15,42.56 0,97.18 -79.05,176.24 -176.23,176.24 -97.19,0 -176.25,-79.06 -176.25,-176.24 0,-97.18 79.06,-176.25 176.25,-176.25 43.5,0 85.27,15.98 117.62,44.99 8.69,7.82 22.12,7.11 29.96,-1.64 7.83,-8.73 7.1,-22.14 -1.64,-29.97 -40.14,-36 -91.97,-55.82 -145.94,-55.82"
         style="fill:#000000;fill-opacity:1;fill-rule:nonzero;stroke:none"
         id="path154" /><path
         d="m 2107.28,2613.94 c -11.73,0 -21.23,9.5 -21.23,21.22 0,68.59 55.81,124.39 124.4,124.39 11.72,0 21.23,-9.5 21.23,-21.23 0,-11.72 -9.51,-21.22 -21.23,-21.22 -45.18,0 -81.95,-36.76 -81.95,-81.94 0,-11.72 -9.5,-21.22 -21.22,-21.22"
         style="fill:#000000;fill-opacity:1;fill-rule:nonzero;stroke:none"
         id="path156" /><path
         d="m 1949.64,1827.78 c -6.06,0 -10.97,-4.92 -10.97,-10.96 0,-6.05 4.91,-10.98 10.97,-10.98 h 521.61 c 6.06,0 10.98,4.93 10.98,10.98 0,6.04 -4.92,10.96 -10.98,10.96 h -55 c -11.73,0 -21.22,9.5 -21.22,21.23 0,11.72 9.49,21.22 21.22,21.22 6.06,0 10.98,4.92 10.98,10.97 0,6.06 -4.92,10.98 -10.98,10.98 h -40.26 c -11.72,0 -21.22,9.5 -21.22,21.22 0,11.73 9.5,21.23 21.22,21.23 6.05,0 10.98,4.92 10.98,10.98 0,6.05 -4.93,10.98 -10.98,10.98 h -43.59 c -11.72,0 -21.22,9.5 -21.22,21.22 0,11.73 9.5,21.23 21.22,21.23 6.05,0 10.97,4.92 10.97,10.97 0,6.04 -4.92,10.96 -10.97,10.96 h -243.9 c -6.05,0 -10.98,-4.92 -10.98,-10.96 0,-6.05 4.93,-10.97 10.98,-10.97 11.72,0 21.22,-9.5 21.22,-21.23 0,-11.72 -9.5,-21.22 -21.22,-21.22 h -43.6 c -6.05,0 -10.98,-4.93 -10.98,-10.98 0,-6.06 4.93,-10.98 10.98,-10.98 11.72,0 21.22,-9.5 21.22,-21.23 0,-11.72 -9.5,-21.22 -21.22,-21.22 h -40.25 c -6.06,0 -10.98,-4.92 -10.98,-10.98 0,-6.05 4.92,-10.97 10.98,-10.97 11.72,0 21.22,-9.5 21.22,-21.22 0,-11.73 -9.5,-21.23 -21.22,-21.23 z m 521.61,-64.39 h -521.61 c -29.46,0 -53.42,23.97 -53.42,53.43 0,29.44 23.96,53.41 53.42,53.41 h 2.72 c -0.75,3.54 -1.14,7.22 -1.14,10.97 0,25.42 17.85,46.76 41.68,52.12 -0.94,3.95 -1.43,8.06 -1.43,12.29 0,26.54 19.47,48.63 44.89,52.74 -0.85,3.75 -1.29,7.67 -1.29,11.66 0,29.45 23.97,53.41 53.43,53.41 h 243.9 c 29.47,0 53.42,-23.96 53.42,-53.41 0,-3.99 -0.45,-7.91 -1.28,-11.66 25.41,-4.11 44.88,-26.2 44.88,-52.74 0,-4.23 -0.5,-8.34 -1.43,-12.28 23.83,-5.37 41.69,-26.71 41.69,-52.13 0,-3.75 -0.4,-7.43 -1.13,-10.97 h 2.7 c 29.47,0 53.43,-23.97 53.43,-53.41 0,-29.46 -23.96,-53.43 -53.43,-53.43"
         style="fill:#000000;fill-opacity:1;fill-rule:nonzero;stroke:none"
         id="path158" /><path
         d="m 2267.99,2020.97 h -115.1 c -11.72,0 -21.22,9.5 -21.22,21.22 v 404.08 c 0,6.73 3.18,13.06 8.59,17.06 5.4,4.01 12.37,5.19 18.82,3.25 33.38,-10.17 69.37,-10.17 102.73,0 6.39,1.94 13.4,0.76 18.82,-3.25 5.41,-4 8.59,-10.33 8.59,-17.06 v -89.42 c 0,-11.72 -9.5,-21.23 -21.23,-21.23 -11.72,0 -21.22,9.51 -21.22,21.23 v 62.66 c -23.97,-4.05 -48.66,-4.04 -72.65,0 v -356.09 h 72.65 v 217.02 c 0,11.72 9.5,21.22 21.22,21.22 11.73,0 21.23,-9.5 21.23,-21.22 v -238.25 c 0,-11.72 -9.5,-21.22 -21.23,-21.22"
         style="fill:#000000;fill-opacity:1;fill-rule:nonzero;stroke:none"
         id="path160" /><path
         d="M 2237.14,1956.59 H 2088.5 c -11.72,0 -21.23,9.5 -21.23,21.22 0,11.73 9.51,21.23 21.23,21.23 h 148.64 c 11.72,0 21.22,-9.5 21.22,-21.23 0,-11.72 -9.5,-21.22 -21.22,-21.22"
         style="fill:#000000;fill-opacity:1;fill-rule:nonzero;stroke:none"
         id="path162" /><path
         d="m 2375.99,1892.18 h -255.57 c -11.73,0 -21.23,9.5 -21.23,21.22 0,11.73 9.5,21.23 21.23,21.23 h 255.57 c 11.73,0 21.23,-9.5 21.23,-21.23 0,-11.72 -9.5,-21.22 -21.23,-21.22"
         style="fill:#000000;fill-opacity:1;fill-rule:nonzero;stroke:none"
         id="path164" /><path
         d="m 2289.47,1827.78 h -284.82 c -11.73,0 -21.23,9.5 -21.23,21.23 0,11.72 9.5,21.22 21.23,21.22 h 284.82 c 11.72,0 21.23,-9.5 21.23,-21.22 0,-11.73 -9.51,-21.23 -21.23,-21.23"
         style="fill:#000000;fill-opacity:1;fill-rule:nonzero;stroke:none"
         id="path166" /><path
         d="m 1813.13,1763.39 c -11.12,0 -20.16,-9.03 -20.16,-20.16 v -122.76 c 0,-11.12 9.04,-20.15 20.16,-20.15 h 794.64 c 11.13,0 20.16,9.03 20.16,20.15 v 122.76 c 0,11.13 -9.03,20.16 -20.16,20.16 z m 794.64,-205.52 h -794.64 c -34.52,0 -62.61,28.08 -62.61,62.6 v 122.76 c 0,34.52 28.09,62.61 62.61,62.61 h 794.64 c 34.53,0 62.61,-28.09 62.61,-62.61 v -122.76 c 0,-34.52 -28.08,-62.6 -62.61,-62.6"
         style="fill:#000000;fill-opacity:1;fill-rule:nonzero;stroke:none"
         id="path168" /><path
         d="m 1940.78,1660.62 h -79.15 c -11.72,0 -21.23,9.5 -21.23,21.22 0,11.73 9.51,21.23 21.23,21.23 h 79.15 c 11.72,0 21.23,-9.5 21.23,-21.23 0,-11.72 -9.51,-21.22 -21.23,-21.22"
         style="fill:#000000;fill-opacity:1;fill-rule:nonzero;stroke:none"
         id="path170" /><path
         d="m 2063.41,1697.38 c -8.57,0 -15.55,-6.97 -15.55,-15.54 0,-8.56 6.98,-15.54 15.55,-15.54 h 298.11 c 8.57,0 15.53,6.98 15.53,15.54 0,8.57 -6.96,15.54 -15.53,15.54 z m 298.11,-73.52 h -298.11 c -31.98,0 -57.99,26.02 -57.99,57.98 0,31.97 26.01,57.99 57.99,57.99 h 298.11 c 31.97,0 57.99,-26.02 57.99,-57.99 0,-31.96 -26.02,-57.98 -57.99,-57.98"
         style="fill:#000000;fill-opacity:1;fill-rule:nonzero;stroke:none"
         id="path172" /><path
         d="m 2510.86,1666.3 h 31.08 v 31.08 h -31.08 z m 33.59,-42.44 h -36.11 c -22.02,0 -39.92,17.92 -39.92,39.94 v 36.11 c 0,22.01 17.9,39.92 39.92,39.92 h 36.11 c 22.02,0 39.94,-17.91 39.94,-39.92 v -36.11 c 0,-22.02 -17.92,-39.94 -39.94,-39.94"
         style="fill:#000000;fill-opacity:1;fill-rule:nonzero;stroke:none"
         id="path174" /><path
         d="m 2597.97,2359.31 h -122.39 c -11.72,0 -21.22,9.5 -21.22,21.23 0,11.72 9.5,21.22 21.22,21.22 h 122.39 c 11.72,0 21.22,-9.5 21.22,-21.22 0,-11.73 -9.5,-21.23 -21.22,-21.23"
         style="fill:#000000;fill-opacity:1;fill-rule:nonzero;stroke:none"
         id="path176" /><path
         d="m 2536.77,2298.11 c -11.73,0 -21.23,9.5 -21.23,21.22 v 122.4 c 0,11.73 9.5,21.22 21.23,21.22 11.72,0 21.22,-9.49 21.22,-21.22 v -122.4 c 0,-11.72 -9.5,-21.22 -21.22,-21.22"
         style="fill:#000000;fill-opacity:1;fill-rule:nonzero;stroke:none"
         id="path178" /><path
         d="m 1978.64,2155.62 h -122.4 c -11.72,0 -21.22,9.49 -21.22,21.22 0,11.72 9.5,21.23 21.22,21.23 h 122.4 c 11.72,0 21.22,-9.51 21.22,-21.23 0,-11.73 -9.5,-21.22 -21.22,-21.22"
         style="fill:#000000;fill-opacity:1;fill-rule:nonzero;stroke:none"
         id="path180" /><path
         d="m 1917.44,2094.41 c -11.72,0 -21.22,9.5 -21.22,21.23 v 122.39 c 0,11.72 9.5,21.23 21.22,21.23 11.73,0 21.23,-9.51 21.23,-21.23 v -122.39 c 0,-11.73 -9.5,-21.23 -21.23,-21.23"
         style="fill:#000000;fill-opacity:1;fill-rule:nonzero;stroke:none"
         id="path182" /><path
         d="m 191.59,1091.2 h 59.43 v 153.7 h -59.43 z m 80.652,-42.45 H 170.367 c -11.722,0 -21.222,9.51 -21.222,21.23 v 196.15 c 0,11.72 9.5,21.22 21.222,21.22 h 101.875 c 11.727,0 21.227,-9.5 21.227,-21.22 v -196.15 c 0,-11.72 -9.5,-21.23 -21.227,-21.23"
         style="fill:#000000;fill-opacity:1;fill-rule:nonzero;stroke:none"
         id="path184" /><path
         d="m 426.473,1091.2 h 59.429 v 153.7 h -59.429 z m 80.648,-42.45 H 405.246 c -11.723,0 -21.223,9.51 -21.223,21.23 v 196.15 c 0,11.72 9.5,21.22 21.223,21.22 h 101.875 c 11.727,0 21.227,-9.5 21.227,-21.22 v -196.15 c 0,-11.72 -9.5,-21.23 -21.227,-21.23"
         style="fill:#000000;fill-opacity:1;fill-rule:nonzero;stroke:none"
         id="path186" /><path
         d="m 191.59,189.051 h 59.43 v 775.957 h -59.43 z m 80.652,-42.449 H 170.367 c -11.722,0 -21.222,9.5 -21.222,21.226 v 818.41 c 0,11.723 9.5,21.222 21.222,21.222 h 101.875 c 11.727,0 21.227,-9.499 21.227,-21.222 v -818.41 c 0,-11.726 -9.5,-21.226 -21.227,-21.226"
         style="fill:#000000;fill-opacity:1;fill-rule:nonzero;stroke:none"
         id="path188" /><path
         d="M 507.121,146.602 H 405.246 c -11.723,0 -21.223,9.5 -21.223,21.226 V 307.43 c 0,11.711 9.5,21.218 21.223,21.218 11.727,0 21.227,-9.507 21.227,-21.218 V 189.051 h 59.429 v 115.527 c 0,11.731 9.5,21.231 21.219,21.231 11.727,0 21.227,-9.5 21.227,-21.231 v -136.75 c 0,-11.726 -9.5,-21.226 -21.227,-21.226"
         style="fill:#000000;fill-opacity:1;fill-rule:nonzero;stroke:none"
         id="path190" /><path
         d="m 405.246,815.289 c -11.723,0 -21.223,9.5 -21.223,21.219 v 149.73 c 0,11.723 9.5,21.222 21.223,21.222 h 101.875 c 11.727,0 21.227,-9.499 21.227,-21.222 V 898.16 c 0,-11.719 -9.5,-21.219 -21.227,-21.219 -11.719,0 -21.219,9.5 -21.219,21.219 v 66.848 h -59.429 v -128.5 c 0,-11.719 -9.5,-21.219 -21.227,-21.219"
         style="fill:#000000;fill-opacity:1;fill-rule:nonzero;stroke:none"
         id="path192" /><path
         d="M 405.246,146.602 H 272.242 c -11.722,0 -21.222,9.5 -21.222,21.226 V 1216.53 c 0,11.73 9.5,21.23 21.222,21.23 h 133.004 c 11.727,0 21.227,-9.5 21.227,-21.23 V 836.508 c 0,-11.719 -9.5,-21.219 -21.227,-21.219 -11.723,0 -21.223,9.5 -21.223,21.219 V 1195.31 H 293.469 V 189.051 h 90.554 v 176.367 c 0,11.73 9.5,21.23 21.223,21.23 11.727,0 21.227,-9.5 21.227,-21.23 v -197.59 c 0,-11.726 -9.5,-21.226 -21.227,-21.226"
         style="fill:#000000;fill-opacity:1;fill-rule:nonzero;stroke:none"
         id="path194" /><path
         d="m 114.066,76.7695 h 449.36 L 542.313,146.602 H 135.184 Z M 592.023,34.3203 H 85.4727 c -6.7188,0 -13.043,3.1797 -17.0469,8.5703 -4.0078,5.3985 -5.2149,12.3789 -3.2656,18.8086 L 99.1133,173.98 c 2.7067,8.95 10.9607,15.071 20.3127,15.071 h 438.64 c 9.348,0 17.606,-6.121 20.313,-15.071 L 612.336,61.6992 c 1.949,-6.4297 0.738,-13.4101 -3.266,-18.8086 -4.007,-5.3906 -10.332,-8.5703 -17.047,-8.5703"
         style="fill:#000000;fill-opacity:1;fill-rule:nonzero;stroke:none"
         id="path196" /><path
         d="m 1149.72,351.969 c -2.89,0 -5.81,0.57 -8.61,1.812 -10.72,4.778 -15.54,17.321 -10.77,28.028 29.31,65.929 -0.47,143.402 -66.4,172.722 -10.71,4.77 -15.53,17.297 -10.77,28.008 4.76,10.723 17.32,15.539 28.02,10.781 42.3,-18.808 74.73,-52.949 91.35,-96.172 16.6,-43.207 15.39,-90.289 -3.42,-132.589 -3.52,-7.911 -11.27,-12.59 -19.4,-12.59"
         style="fill:#000000;fill-opacity:1;fill-rule:nonzero;stroke:none"
         id="path198" /><path
         d="m 1010.54,261.691 c -23.501,0 -47.352,4.797 -70.173,14.938 -42.289,18.801 -74.73,52.961 -91.344,96.18 -16.609,43.191 -15.398,90.281 3.411,132.582 18.804,42.3 52.964,74.73 96.168,91.347 43.214,16.59 90.298,15.391 132.588,-3.418 10.71,-4.769 15.54,-17.312 10.77,-28.019 -4.77,-10.711 -17.33,-15.543 -28.02,-10.77 -31.92,14.219 -67.456,15.098 -100.108,2.578 -32.621,-12.539 -58.41,-37.031 -72.613,-68.961 -14.199,-31.937 -15.114,-67.488 -2.567,-100.117 12.532,-32.621 37.024,-58.41 68.965,-72.601 31.934,-14.239 67.483,-15.121 100.113,-2.578 32.62,12.527 58.41,37.027 72.61,68.957 4.76,10.722 17.31,15.519 28.01,10.781 10.71,-4.77 15.54,-17.309 10.77,-28.031 -28.68,-64.481 -92.18,-102.868 -158.58,-102.868"
         style="fill:#000000;fill-opacity:1;fill-rule:nonzero;stroke:none"
         id="path200" /><path
         d="m 633.176,733.801 c -15.848,0 -31.738,-2.922 -46.981,-8.77 -32.629,-12.543 -58.41,-37.031 -72.613,-68.961 -14.199,-31.941 -15.113,-67.492 -2.566,-100.101 12.531,-32.641 37.023,-58.418 68.957,-72.617 65.937,-29.313 143.41,0.468 172.726,66.378 14.203,31.93 15.114,67.489 2.567,100.11 -12.532,32.621 -37.024,58.422 -68.957,72.609 -17.012,7.571 -35.055,11.352 -53.133,11.352 z M 633.09,429.52 c -23.945,0 -47.832,5.019 -70.356,15.031 -42.3,18.82 -74.738,52.957 -91.347,96.179 -16.61,43.211 -15.403,90.278 3.41,132.579 18.805,42.3 52.965,74.742 96.168,91.351 43.207,16.598 90.305,15.391 132.582,-3.422 42.301,-18.808 74.738,-52.949 91.355,-96.168 16.606,-43.211 15.395,-90.281 -3.418,-132.59 C 772.68,490.191 738.52,457.758 695.316,441.141 675.129,433.379 654.086,429.52 633.09,429.52"
         style="fill:#000000;fill-opacity:1;fill-rule:nonzero;stroke:none"
         id="path202" /><path
         d="m 725.891,403.051 c 38.066,0 74.14,-21.84 90.714,-57.77 22.133,-47.992 61.114,-85.929 109.747,-106.84 101.538,-43.691 224.838,0.829 274.898,99.188 26.98,53.019 30.94,112.961 11.13,168.789 -19.8,55.883 -60.55,99.922 -114.69,123.992 L 725.199,796.051 c -106.859,47.558 -234.34,3.039 -284.195,-99.141 -25.75,-52.781 -28.891,-112.14 -8.852,-167.18 20.043,-55.05 60.563,-98.48 114.082,-122.269 47.371,-21.063 100.715,-24.223 150.145,-8.891 9.766,3.032 19.715,4.481 29.512,4.481 z M 1010.38,178.648 c -33.778,0 -68.025,6.704 -100.798,20.801 C 851.301,224.5 804.594,269.98 778.051,327.5 765.898,353.828 736.84,366.699 708.957,358.012 649.668,339.66 585.746,343.441 528.988,368.66 c -64.144,28.539 -112.695,80.57 -136.722,146.551 -24.02,65.949 -20.254,137.098 10.586,200.301 59.757,122.508 212.113,175.996 339.593,119.34 L 1114.93,669.219 c 64.9,-28.867 113.72,-81.649 137.47,-148.61 23.72,-66.91 18.99,-138.75 -13.33,-202.25 -44.85,-88.121 -134.96,-139.711 -228.69,-139.711"
         style="fill:#000000;fill-opacity:1;fill-rule:nonzero;stroke:none"
         id="path204" /><path
         d="m 1023.88,470.98 c -0.51,-1.152 0.2,-3.019 1.35,-3.531 1.35,-0.539 2.91,0.031 3.51,1.34 0.6,1.371 -0.01,2.961 -1.36,3.563 -1.14,0.5 -3.01,-0.243 -3.5,-1.372 z m 2.42,-40.89 c -5.49,0 -10.98,1.16 -16.15,3.449 -9.71,4.32 -17.17,12.16 -20.97,22.07 -3.817,9.922 -3.543,20.731 0.769,30.45 8.938,20.05 32.511,29.05 52.521,20.191 9.71,-4.301 17.16,-12.148 20.98,-22.07 3.81,-9.93 3.53,-20.739 -0.79,-30.461 -4.32,-9.688 -12.15,-17.141 -22.08,-20.949 -4.63,-1.782 -9.46,-2.68 -14.28,-2.68"
         style="fill:#000000;fill-opacity:1;fill-rule:nonzero;stroke:none"
         id="path206" /><path
         d="m 995.254,402.719 c -1.016,0 -2,-0.598 -2.438,-1.571 l 4.868,-2.179 c 0.507,1.14 -0.204,3.011 -1.36,3.511 -0.347,0.149 -0.715,0.239 -1.07,0.239 z m -2.441,-1.59 c -0.594,-1.348 0.023,-2.918 1.367,-3.52 1.332,-0.55 2.898,0.032 3.504,1.352 z m 2.375,-40.859 c -5.391,0 -10.868,1.089 -16.102,3.421 -9.707,4.321 -17.16,12.161 -20.973,22.09 -3.812,9.93 -3.535,20.739 0.785,30.449 4.313,9.7 12.157,17.149 22.082,20.961 9.907,3.797 20.72,3.52 30.42,-0.781 9.72,-4.332 17.18,-12.172 20.99,-22.082 3.8,-9.918 3.53,-20.726 -0.78,-30.449 -6.6,-14.801 -21.18,-23.609 -36.422,-23.609"
         style="fill:#000000;fill-opacity:1;fill-rule:nonzero;stroke:none"
         id="path208" /><path
         d="m 1045.71,422.121 c -1.02,0 -2,-0.601 -2.44,-1.582 -0.59,-1.359 0,-2.93 1.34,-3.519 l 2.17,4.871 c -0.36,0.148 -0.72,0.23 -1.07,0.23 z m -1.09,-5.101 c 1.12,-0.45 2.99,0.191 3.51,1.308 0.52,1.172 -0.2,3.043 -1.35,3.563 z m 1.02,-37.352 c -5.39,0 -10.86,1.102 -16.1,3.422 -9.71,4.328 -17.16,12.148 -20.97,22.078 -3.82,9.922 -3.54,20.73 0.78,30.434 4.32,9.718 12.16,17.156 22.08,20.976 9.92,3.84 20.73,3.531 30.47,-0.797 20.01,-8.902 29.07,-32.453 20.17,-52.492 -6.6,-14.82 -21.18,-23.621 -36.43,-23.621"
         style="fill:#000000;fill-opacity:1;fill-rule:nonzero;stroke:none"
         id="path210" /><path
         d="m 975.852,453.18 c -1.02,0 -1.997,-0.602 -2.446,-1.59 -0.586,-1.332 0.012,-2.899 1.336,-3.5 0.028,0 2.18,4.851 2.18,4.851 -0.348,0.149 -0.711,0.239 -1.07,0.239 z m -1.082,-5.09 c 1.367,-0.649 2.914,0.012 3.515,1.32 0.594,1.371 -0.012,2.942 -1.351,3.531 z m 1.07,-37.391 c -5.488,0 -10.977,1.16 -16.145,3.442 -20.047,8.918 -29.109,32.48 -20.203,52.527 8.93,20.051 32.473,29.113 52.524,20.203 20.064,-8.961 29.094,-32.519 20.184,-52.551 -4.31,-9.699 -12.15,-17.14 -22.079,-20.961 -4.633,-1.769 -9.461,-2.66 -14.281,-2.66"
         style="fill:#000000;fill-opacity:1;fill-rule:nonzero;stroke:none"
         id="path212" /><path
         d="m 638.84,594.469 c -8.527,0 -16.57,5.172 -19.813,13.601 l -7.519,19.539 c -2.028,5.262 -1.875,11.11 0.414,16.25 l 7.418,16.692 c 6.285,14.109 22.887,20.437 36.984,14.238 l 14.653,-6.508 c 6.847,-3.062 12.097,-8.601 14.785,-15.59 2.683,-7 2.472,-14.632 -0.582,-21.461 l -7.399,-16.652 C 675.5,609.441 671.258,605.41 666,603.391 l -19.555,-7.512 c -2.507,-0.961 -5.074,-1.41 -7.605,-1.41"
         style="fill:#000000;fill-opacity:1;fill-rule:nonzero;stroke:none"
         id="path214" /><path
         d="m 621.309,528.629 c -3.801,0 -7.664,0.762 -11.356,2.402 l -14.633,6.489 c -6.867,3.058 -12.109,8.582 -14.8,15.589 -2.676,6.981 -2.473,14.602 0.566,21.43 l 7.422,16.672 c 2.285,5.148 6.523,9.168 11.777,11.207 l 19.563,7.512 c 10.953,4.199 23.211,-1.262 27.418,-12.192 l 7.515,-19.547 c 2.024,-5.261 1.875,-11.121 -0.414,-16.25 l -7.418,-16.683 c -4.636,-10.43 -14.898,-16.629 -25.64,-16.629"
         style="fill:#000000;fill-opacity:1;fill-rule:nonzero;stroke:none"
         id="path216" /><path
         d="m 600.852,579.789 c -2.872,0 -5.727,0.57 -8.383,1.762 l -16.688,7.429 c -14.113,6.27 -20.484,22.848 -14.211,36.981 l 6.52,14.641 c 6.273,14.109 22.879,20.507 36.98,14.226 l 16.68,-7.41 c 5.152,-2.297 9.172,-6.527 11.199,-11.777 0.379,-1 0.688,-2 0.906,-3.02 l 6.313,-16.422 c 4.199,-10.949 -1.262,-23.23 -12.207,-27.441 l -17.199,-6.598 c -0.641,-0.332 -1.305,-0.621 -1.985,-0.89 -2.543,-0.981 -5.238,-1.481 -7.925,-1.481"
         style="fill:#000000;fill-opacity:1;fill-rule:nonzero;stroke:none"
         id="path218" /><path
         d="m 672.586,548.559 c -3.871,0 -7.731,0.812 -11.375,2.41 l -16.676,7.41 c -5.148,2.301 -9.176,6.539 -11.191,11.781 -0.383,1 -0.68,1.988 -0.914,3.02 l -6.313,16.429 c -2.015,5.262 -1.871,11.102 0.418,16.231 2.289,5.16 6.524,9.168 11.785,11.199 l 17.34,6.66 c 5.481,2.809 12.121,3.242 18.153,0.563 l 16.679,-7.41 c 14.121,-6.282 20.512,-22.883 14.227,-37 l -6.52,-14.653 c -3.039,-6.847 -8.562,-12.09 -15.558,-14.781 -3.258,-1.258 -6.657,-1.859 -10.055,-1.859"
         style="fill:#000000;fill-opacity:1;fill-rule:nonzero;stroke:none"
         id="path220" /><path
         d="M 1185.28,34.3203 H 592.023 c -11.722,0 -21.222,9.5 -21.222,21.2305 0,11.7187 9.5,21.2187 21.222,21.2187 h 593.257 c 11.73,0 21.22,-9.5 21.22,-21.2187 0,-11.7305 -9.49,-21.2305 -21.22,-21.2305"
         style="fill:#000000;fill-opacity:1;fill-rule:nonzero;stroke:none"
         id="path222" /><path
         d="m 1755.78,378.441 h -59.62 c -11.72,0 -21.22,9.5 -21.22,21.227 0,11.723 9.5,21.223 21.22,21.223 h 48.05 v 48.058 c 0,11.719 9.5,21.219 21.22,21.219 11.73,0 21.23,-9.5 21.23,-21.219 V 409.32 c 0,-17.031 -13.86,-30.879 -30.88,-30.879"
         style="fill:#000000;fill-opacity:1;fill-rule:nonzero;stroke:none"
         id="path224" /><path
         d="m 1891.39,378.441 h -57.57 c -17.02,0 -30.88,13.848 -30.88,30.879 v 57.571 c 0,11.73 9.5,21.218 21.22,21.218 11.73,0 21.23,-9.488 21.23,-21.218 v -46 h 46 c 11.72,0 21.22,-9.5 21.22,-21.223 0,-11.727 -9.5,-21.227 -21.22,-21.227"
         style="fill:#000000;fill-opacity:1;fill-rule:nonzero;stroke:none"
         id="path226" /><path
         d="m 1824.16,250.449 c -11.72,0 -21.22,9.5 -21.22,21.223 v 59.609 c 0,17.028 13.86,30.879 30.88,30.879 h 59.62 c 11.71,0 21.22,-9.5 21.22,-21.23 0,-11.719 -9.51,-21.219 -21.22,-21.219 h -48.05 v -48.039 c 0,-11.723 -9.5,-21.223 -21.23,-21.223"
         style="fill:#000000;fill-opacity:1;fill-rule:nonzero;stroke:none"
         id="path228" /><path
         d="m 1765.43,252.48 c -11.72,0 -21.22,9.508 -21.22,21.231 v 46 h -46 c -11.72,0 -21.22,9.5 -21.22,21.219 0,11.73 9.5,21.23 21.22,21.23 h 57.57 c 17.02,0 30.88,-13.851 30.88,-30.879 v -57.57 c 0,-11.723 -9.5,-21.231 -21.23,-21.231"
         style="fill:#000000;fill-opacity:1;fill-rule:nonzero;stroke:none"
         id="path230" /><path
         d="m 2415.44,1087.49 c -5.44,0 -10.86,2.07 -15.01,6.21 -22.98,22.97 -22.98,60.37 0,83.34 22.98,22.99 60.34,22.95 83.32,0 8.29,-8.3 8.29,-21.73 0,-30.02 -8.29,-8.3 -21.72,-8.3 -30.01,0 -6.43,6.43 -16.86,6.43 -23.3,0 -6.41,-6.42 -6.41,-16.88 0,-23.3 8.29,-8.29 8.29,-21.72 0,-30.02 -4.14,-4.14 -9.56,-6.21 -15,-6.21"
         style="fill:#000000;fill-opacity:1;fill-rule:nonzero;stroke:none"
         id="path232" /><path
         d="m 2559.87,958.711 c -15.09,0 -30.18,5.75 -41.67,17.23 -8.29,8.289 -8.29,21.727 0,30.019 8.29,8.29 21.72,8.29 30.01,0 6.43,-6.429 16.88,-6.429 23.32,0 3.11,3.12 4.82,7.25 4.82,11.64 0,4.41 -1.71,8.54 -4.82,11.65 -8.29,8.29 -8.29,21.73 0,30.02 8.29,8.29 21.72,8.29 30.01,0 11.12,-11.13 17.25,-25.94 17.25,-41.67 0,-15.74 -6.13,-30.549 -17.25,-41.67 -11.5,-11.469 -26.59,-17.219 -41.67,-17.219"
         style="fill:#000000;fill-opacity:1;fill-rule:nonzero;stroke:none"
         id="path234" /><path
         d="m 2586.53,1087.49 c -5.44,0 -10.86,2.07 -15,6.21 -8.29,8.3 -8.29,21.73 0,30.02 6.41,6.42 6.41,16.88 0,23.3 -6.44,6.43 -16.89,6.43 -23.32,0 -8.29,-8.3 -21.72,-8.3 -30.01,0 -8.29,8.29 -8.29,21.72 0,30.02 22.98,22.97 60.36,22.97 83.34,0 22.97,-22.97 22.97,-60.37 0,-83.34 -4.15,-4.14 -9.57,-6.21 -15.01,-6.21"
         style="fill:#000000;fill-opacity:1;fill-rule:nonzero;stroke:none"
         id="path236" /><path
         d="m 2442.08,958.711 c -15.07,0 -30.15,5.75 -41.65,17.23 -11.12,11.11 -17.26,25.919 -17.26,41.659 0,15.73 6.14,30.54 17.26,41.67 8.29,8.29 21.72,8.29 30.01,0 8.29,-8.29 8.29,-21.73 0,-30.02 -3.11,-3.11 -4.82,-7.24 -4.82,-11.65 0,-4.39 1.71,-8.52 4.82,-11.63 6.42,-6.419 16.87,-6.458 23.3,-0.01 8.29,8.29 21.72,8.29 30.01,0 8.29,-8.292 8.29,-21.73 0,-30.019 -11.48,-11.48 -26.58,-17.23 -41.67,-17.23"
         style="fill:#000000;fill-opacity:1;fill-rule:nonzero;stroke:none"
         id="path238" /><path
         d="m 2784.45,1013.87 c -5.44,0 -10.86,2.07 -15.01,6.21 l -189.78,189.77 c -8.29,8.29 -8.29,21.72 0,30.01 8.29,8.29 21.73,8.29 30.02,0 l 189.78,-189.76 c 8.29,-8.29 8.29,-21.73 0,-30.02 -4.15,-4.14 -9.57,-6.21 -15.01,-6.21"
         style="fill:#000000;fill-opacity:1;fill-rule:nonzero;stroke:none"
         id="path240" /><path
         d="m 2765.94,757.531 c -5.44,0 -10.86,2.071 -15,6.219 -8.29,8.289 -8.29,21.719 0,30.008 l 46.55,46.594 c 20.27,20.25 31.41,47.179 31.41,75.839 0,28.629 -11.14,55.579 -31.41,75.829 l -28.05,28.06 c -8.29,8.29 -8.29,21.74 0,30.02 8.29,8.29 21.73,8.29 30.02,0 l 28.05,-28.07 c 28.27,-28.28 43.84,-65.862 43.84,-105.839 0,-39.992 -15.57,-77.589 -43.84,-105.863 l -46.56,-46.578 c -4.15,-4.148 -9.57,-6.219 -15.01,-6.219"
         style="fill:#000000;fill-opacity:1;fill-rule:nonzero;stroke:none"
         id="path242" /><path
         d="m 2429.23,420.82 c -5.44,0 -10.86,2.071 -15,6.219 -8.29,8.301 -8.29,21.719 0,30.012 l 336.71,336.707 c 8.29,8.293 21.72,8.293 30.01,0 8.29,-8.289 8.29,-21.719 0,-30.008 L 2444.24,427.039 c -4.14,-4.148 -9.57,-6.219 -15.01,-6.219"
         style="fill:#000000;fill-opacity:1;fill-rule:nonzero;stroke:none"
         id="path244" /><path
         d="m 1955.11,0 c -38.34,0 -76.67,14.5898 -105.86,43.7695 L 1593.38,299.641 c -28.28,28.269 -43.85,65.871 -43.85,105.859 0,40 15.57,77.59 43.85,105.859 l 766.55,766.551 c 58.36,58.37 153.34,58.37 211.7,0 l 38.05,-38.05 c 8.29,-8.29 8.29,-21.74 0,-30.01 -8.31,-8.29 -21.74,-8.29 -30.02,0 l -38.04,38.05 c -41.83,41.8 -109.88,41.8 -151.69,0 L 1623.39,481.352 c -41.81,-41.821 -41.81,-109.872 0,-151.692 L 1879.27,73.7891 c 41.81,-41.8203 109.86,-41.8203 151.69,0 l 383.27,383.2619 c 8.29,8.301 21.72,8.301 30.01,0 8.29,-8.293 8.29,-21.711 0,-30.012 L 2060.97,43.7695 C 2031.78,14.5898 1993.44,0 1955.11,0"
         style="fill:#000000;fill-opacity:1;fill-rule:nonzero;stroke:none"
         id="path246" /><path
         d="m 1789.62,647.559 330.33,-330.321 434.1,434.09 -330.34,330.342 z M 2119.95,266 c -5.43,0 -10.85,2.078 -15,6.219 L 1744.6,632.551 c -3.98,3.988 -6.22,9.379 -6.22,15.008 0,5.632 2.24,11.031 6.22,15.011 l 464.11,464.12 c 7.95,7.96 22.06,7.96 30.02,0 l 360.34,-360.35 c 8.29,-8.289 8.29,-21.731 0,-30.02 L 2134.96,272.219 c -4.14,-4.141 -9.58,-6.219 -15.01,-6.219"
         style="fill:#000000;fill-opacity:1;fill-rule:nonzero;stroke:none"
         id="path248" /><path
         d="m 2346.81,645.762 c -11.73,0 -21.23,9.496 -21.23,21.218 V 808.5 c 0,11.73 9.5,21.23 21.23,21.23 11.72,0 21.22,-9.5 21.22,-21.23 V 666.98 c 0,-11.722 -9.5,-21.218 -21.22,-21.218"
         style="fill:#000000;fill-opacity:1;fill-rule:nonzero;stroke:none"
         id="path250" /><path
         d="m 2182.59,498.93 c -11.72,0 -21.22,9.488 -21.22,21.218 V 774.73 c 0,11.719 9.5,21.219 21.22,21.219 11.72,0 21.23,-9.5 21.23,-21.219 V 520.148 c 0,-11.73 -9.51,-21.218 -21.23,-21.218"
         style="fill:#000000;fill-opacity:1;fill-rule:nonzero;stroke:none"
         id="path252" /><path
         d="m 2021.86,560.609 c -11.72,0 -21.23,9.5 -21.23,21.219 V 795.57 c 0,11.719 9.51,21.219 21.23,21.219 11.72,0 21.22,-9.5 21.22,-21.219 V 581.828 c 0,-11.719 -9.5,-21.219 -21.22,-21.219"
         style="fill:#000000;fill-opacity:1;fill-rule:nonzero;stroke:none"
         id="path254" /><path
         d="m 2604.96,852.66 c -5.44,0 -10.86,2.07 -15,6.219 -8.29,8.289 -8.29,21.723 0,30.012 l 98.62,98.609 c 8.28,8.289 21.72,8.289 30.01,0 8.29,-8.289 8.29,-21.711 0,-30.012 l -98.62,-98.609 c -4.14,-4.149 -9.57,-6.219 -15.01,-6.219"
         style="fill:#000000;fill-opacity:1;fill-rule:nonzero;stroke:none"
         id="path256" /><path
         d="m 2677.2,857.121 c -5.44,0 -10.86,2.07 -15.01,6.219 -8.29,8.289 -8.29,21.719 0,30.012 l 21.92,21.929 c 8.3,8.289 21.72,8.289 30.01,0 8.3,-8.293 8.3,-21.73 0,-30.023 L 2692.2,863.34 c -4.14,-4.149 -9.56,-6.219 -15,-6.219"
         style="fill:#000000;fill-opacity:1;fill-rule:nonzero;stroke:none"
         id="path258" /><path
         d="m 2711.09,823.25 c -5.42,0 -10.86,2.07 -15,6.219 -8.29,8.269 -8.29,21.722 0,30.011 l 21.9,21.918 c 8.27,8.27 21.7,8.301 30.01,0 8.29,-8.277 8.29,-21.73 0,-30.019 l -21.9,-21.91 c -4.14,-4.149 -9.57,-6.219 -15.01,-6.219"
         style="fill:#000000;fill-opacity:1;fill-rule:nonzero;stroke:none"
         id="path260" /><path
         d="m 1898.78,146.48 c -5.43,0 -10.86,2.079 -15.01,6.219 -8.29,8.289 -8.29,21.719 0,30.012 l 98.63,98.609 c 8.29,8.289 21.71,8.289 30.01,0 8.29,-8.289 8.29,-21.718 0,-30.011 l -98.62,-98.61 c -4.15,-4.14 -9.58,-6.219 -15.01,-6.219"
         style="fill:#000000;fill-opacity:1;fill-rule:nonzero;stroke:none"
         id="path262" /><path
         d="m 1971.02,150.941 c -5.43,0 -10.86,2.071 -15.01,6.219 -8.29,8.289 -8.29,21.719 -0.01,30.008 l 21.92,21.934 c 8.29,8.289 21.73,8.289 30.02,0 8.29,-8.301 8.29,-21.723 0.01,-30.012 l -21.92,-21.93 c -4.14,-4.148 -9.58,-6.219 -15.01,-6.219"
         style="fill:#000000;fill-opacity:1;fill-rule:nonzero;stroke:none"
         id="path264" /><path
         d="m 2004.91,117.059 c -5.44,0 -10.87,2.07 -15.02,6.23 -8.29,8.289 -8.29,21.711 0.01,30 l 21.91,21.91 c 8.29,8.289 21.73,8.289 30.02,0 8.29,-8.289 8.29,-21.719 -0.01,-30.008 l -21.91,-21.902 c -4.15,-4.16 -9.57,-6.23 -15,-6.23"
         style="fill:#000000;fill-opacity:1;fill-rule:nonzero;stroke:none"
         id="path266" /><path
         d="m 195.887,4303.42 c -45.606,0 -82.719,-37.11 -82.719,-82.73 v -393.33 c 0,-7.95 6.469,-14.42 14.414,-14.42 H 1203.84 c 7.96,0 14.42,6.47 14.42,14.42 v 393.33 c 0,45.62 -37.11,82.73 -82.72,82.73 z M 1203.84,3770.49 H 127.582 c -31.3593,0 -56.8593,25.51 -56.8593,56.87 v 393.33 c 0,69.02 56.1443,125.18 125.1643,125.18 h 939.653 c 69.01,0 125.17,-56.16 125.17,-125.18 v -393.33 c 0,-31.36 -25.51,-56.87 -56.87,-56.87"
         style="fill:#000000;fill-opacity:1;fill-rule:nonzero;stroke:none"
         id="path268" /><path
         d="m 127.582,3688.8 c -7.945,0 -14.414,-6.46 -14.414,-14.42 v -393.33 c 0,-45.61 37.113,-82.72 82.719,-82.72 h 939.653 c 45.61,0 82.72,37.11 82.72,82.72 v 393.33 c 0,7.96 -6.46,14.42 -14.42,14.42 z M 1135.54,3155.88 H 195.887 c -69.02,0 -125.1643,56.15 -125.1643,125.17 v 393.33 c 0,31.36 25.5,56.87 56.8593,56.87 H 1203.84 c 31.36,0 56.87,-25.51 56.87,-56.87 v -393.33 c 0,-69.02 -56.16,-125.17 -125.17,-125.17"
         style="fill:#000000;fill-opacity:1;fill-rule:nonzero;stroke:none"
         id="path270" /><path
         d="m 167.117,3731.25 h 997.193 v 39.24 H 167.117 Z M 1185.54,3688.8 H 145.891 c -11.723,0 -21.219,9.5 -21.219,21.23 v 81.69 c 0,11.72 9.496,21.22 21.219,21.22 H 1185.54 c 11.72,0 21.22,-9.5 21.22,-21.22 v -81.69 c 0,-11.73 -9.5,-21.23 -21.22,-21.23"
         style="fill:#000000;fill-opacity:1;fill-rule:nonzero;stroke:none"
         id="path272" /><path
         d="m 264.75,3812.94 h 801.93 v 490.48 H 264.75 Z m 823.15,-42.45 H 243.527 c -11.722,0 -21.222,9.5 -21.222,21.23 v 532.92 c 0,11.73 9.5,21.23 21.222,21.23 H 1087.9 c 11.73,0 21.23,-9.5 21.23,-21.23 v -532.92 c 0,-11.73 -9.5,-21.23 -21.23,-21.23"
         style="fill:#000000;fill-opacity:1;fill-rule:nonzero;stroke:none"
         id="path274" /><path
         d="m 1239.49,4148.29 h -63.51 c -11.72,0 -21.22,9.5 -21.22,21.23 0,11.71 9.5,21.21 21.22,21.21 h 63.51 c 11.72,0 21.22,-9.5 21.22,-21.21 0,-11.73 -9.5,-21.23 -21.22,-21.23"
         style="fill:#000000;fill-opacity:1;fill-rule:nonzero;stroke:none"
         id="path276" /><path
         d="m 1239.49,3924.37 h -63.51 c -11.72,0 -21.22,9.5 -21.22,21.22 0,11.73 9.5,21.23 21.22,21.23 h 63.51 c 11.72,0 21.22,-9.5 21.22,-21.23 0,-11.72 -9.5,-21.22 -21.22,-21.22"
         style="fill:#000000;fill-opacity:1;fill-rule:nonzero;stroke:none"
         id="path278" /><path
         d="M 155.441,4148.29 H 91.9453 c -11.7226,0 -21.2226,9.5 -21.2226,21.23 0,11.71 9.5,21.21 21.2226,21.21 h 63.4957 c 11.723,0 21.227,-9.5 21.227,-21.21 0,-11.73 -9.504,-21.23 -21.227,-21.23"
         style="fill:#000000;fill-opacity:1;fill-rule:nonzero;stroke:none"
         id="path280" /><path
         d="M 155.441,3924.37 H 91.9453 c -11.7226,0 -21.2226,9.5 -21.2226,21.22 0,11.73 9.5,21.23 21.2226,21.23 h 63.4957 c 11.723,0 21.227,-9.5 21.227,-21.23 0,-11.72 -9.504,-21.22 -21.227,-21.22"
         style="fill:#000000;fill-opacity:1;fill-rule:nonzero;stroke:none"
         id="path282" /><path
         d="m 268.797,3688.8 c 8.473,-21.33 29.316,-36.45 53.633,-36.45 H 1009 c 24.32,0 45.16,15.12 53.64,36.45 z M 1009,3609.9 H 322.43 c -55.211,0 -100.125,44.92 -100.125,100.13 0,11.72 9.5,21.22 21.222,21.22 H 1087.9 c 11.73,0 21.23,-9.5 21.23,-21.22 0,-55.21 -44.92,-100.13 -100.13,-100.13"
         style="fill:#000000;fill-opacity:1;fill-rule:nonzero;stroke:none"
         id="path284" /><path
         d="m 561.961,3198.33 h 207.5 c -1.641,14.85 -4.766,25.43 -7.305,30.56 h -192.89 c -2.528,-5.13 -5.653,-15.71 -7.305,-30.56 z m 229.863,-42.45 H 539.609 c -11.726,0 -21.226,9.5 -21.226,21.22 0,45.56 11.765,94.24 44.789,94.24 H 768.25 c 33.031,0 44.797,-48.68 44.797,-94.24 0,-11.72 -9.5,-21.22 -21.223,-21.22"
         style="fill:#000000;fill-opacity:1;fill-rule:nonzero;stroke:none"
         id="path286" /><path
         d="m 346.465,3548.67 c -76.457,0 -138.664,-62.2 -138.664,-138.67 0,-76.46 62.207,-138.66 138.664,-138.66 76.457,0 138.664,62.2 138.664,138.66 0,76.47 -62.207,138.67 -138.664,138.67 z m 0,-319.78 c -99.863,0 -181.113,81.25 -181.113,181.11 0,99.87 81.25,181.12 181.113,181.12 99.859,0 181.109,-81.25 181.109,-181.12 0,-99.86 -81.25,-181.11 -181.109,-181.11"
         style="fill:#000000;fill-opacity:1;fill-rule:nonzero;stroke:none"
         id="path288" /><path
         d="m 346.465,3456.37 c -11.727,0 -21.223,9.5 -21.223,21.23 v 92.29 c 0,11.73 9.496,21.23 21.223,21.23 11.723,0 21.223,-9.5 21.223,-21.23 v -92.29 c 0,-11.73 -9.5,-21.23 -21.223,-21.23"
         style="fill:#000000;fill-opacity:1;fill-rule:nonzero;stroke:none"
         id="path290" /><path
         d="m 506.355,3388.77 h -92.292 c -11.727,0 -21.227,9.5 -21.227,21.23 0,11.72 9.5,21.23 21.227,21.23 h 92.292 c 11.719,0 21.219,-9.51 21.219,-21.23 0,-11.73 -9.5,-21.23 -21.219,-21.23"
         style="fill:#000000;fill-opacity:1;fill-rule:nonzero;stroke:none"
         id="path292" /><path
         d="m 346.465,3228.89 c -11.727,0 -21.223,9.5 -21.223,21.22 v 92.3 c 0,11.72 9.496,21.22 21.223,21.22 11.723,0 21.223,-9.5 21.223,-21.22 v -92.3 c 0,-11.72 -9.5,-21.22 -21.223,-21.22"
         style="fill:#000000;fill-opacity:1;fill-rule:nonzero;stroke:none"
         id="path294" /><path
         d="m 278.871,3388.77 h -92.297 c -11.722,0 -21.222,9.5 -21.222,21.23 0,11.72 9.5,21.23 21.222,21.23 h 92.297 c 11.723,0 21.227,-9.51 21.227,-21.23 0,-11.73 -9.504,-21.23 -21.227,-21.23"
         style="fill:#000000;fill-opacity:1;fill-rule:nonzero;stroke:none"
         id="path296" /><path
         d="m 984.961,3548.67 c -76.461,0 -138.668,-62.2 -138.668,-138.67 0,-76.46 62.207,-138.66 138.668,-138.66 76.449,0 138.659,62.2 138.659,138.66 0,76.47 -62.21,138.67 -138.659,138.67 z m 0,-319.78 c -99.863,0 -181.113,81.25 -181.113,181.11 0,99.87 81.25,181.12 181.113,181.12 99.859,0 181.109,-81.25 181.109,-181.12 0,-99.86 -81.25,-181.11 -181.109,-181.11"
         style="fill:#000000;fill-opacity:1;fill-rule:nonzero;stroke:none"
         id="path298" /><path
         d="m 984.961,3456.37 c -11.727,0 -21.227,9.5 -21.227,21.23 v 92.29 c 0,11.73 9.5,21.23 21.227,21.23 11.723,0 21.219,-9.5 21.219,-21.23 v -92.29 c 0,-11.73 -9.496,-21.23 -21.219,-21.23"
         style="fill:#000000;fill-opacity:1;fill-rule:nonzero;stroke:none"
         id="path300" /><path
         d="m 917.363,3388.77 h -92.297 c -11.718,0 -21.218,9.5 -21.218,21.23 0,11.72 9.5,21.23 21.218,21.23 h 92.297 c 11.723,0 21.223,-9.51 21.223,-21.23 0,-11.73 -9.5,-21.23 -21.223,-21.23"
         style="fill:#000000;fill-opacity:1;fill-rule:nonzero;stroke:none"
         id="path302" /><path
         d="m 984.961,3228.89 c -11.727,0 -21.227,9.5 -21.227,21.22 v 92.3 c 0,11.72 9.5,21.22 21.227,21.22 11.723,0 21.219,-9.5 21.219,-21.22 v -92.3 c 0,-11.72 -9.496,-21.22 -21.219,-21.22"
         style="fill:#000000;fill-opacity:1;fill-rule:nonzero;stroke:none"
         id="path304" /><path
         d="m 1144.85,3388.77 h -92.3 c -11.72,0 -21.22,9.5 -21.22,21.23 0,11.72 9.5,21.23 21.22,21.23 h 92.3 c 11.72,0 21.22,-9.51 21.22,-21.23 0,-11.73 -9.5,-21.23 -21.22,-21.23"
         style="fill:#000000;fill-opacity:1;fill-rule:nonzero;stroke:none"
         id="path306" /><path
         d="m 770.598,3529.23 h -209.75 c -11.723,0 -21.227,9.5 -21.227,21.22 0,11.73 9.504,21.23 21.227,21.23 h 209.75 c 11.726,0 21.226,-9.5 21.226,-21.23 0,-11.72 -9.5,-21.22 -21.226,-21.22"
         style="fill:#000000;fill-opacity:1;fill-rule:nonzero;stroke:none"
         id="path308" /><path
         d="M 733.453,3461.68 H 597.969 c -11.727,0 -21.227,9.5 -21.227,21.22 0,11.72 9.5,21.23 21.227,21.23 h 135.484 c 11.727,0 21.227,-9.51 21.227,-21.23 0,-11.72 -9.5,-21.22 -21.227,-21.22"
         style="fill:#000000;fill-opacity:1;fill-rule:nonzero;stroke:none"
         id="path310" /><path
         d="M 733.445,3394.13 H 597.957 c -11.723,0 -21.227,9.5 -21.227,21.23 0,11.72 9.504,21.22 21.227,21.22 h 135.488 c 11.723,0 21.227,-9.5 21.227,-21.22 0,-11.73 -9.504,-21.23 -21.227,-21.23"
         style="fill:#000000;fill-opacity:1;fill-rule:nonzero;stroke:none"
         id="path312" /><path
         d="M 733.441,3326.58 H 597.953 c -11.723,0 -21.226,9.5 -21.226,21.22 0,11.73 9.503,21.23 21.226,21.23 h 135.488 c 11.723,0 21.219,-9.5 21.219,-21.23 0,-11.72 -9.496,-21.22 -21.219,-21.22"
         style="fill:#000000;fill-opacity:1;fill-rule:nonzero;stroke:none"
         id="path314" /><path
         d="m 425.699,4018.82 c -5.426,0 -10.863,2.07 -15.008,6.22 -8.289,8.28 -8.289,21.72 0,30.01 l 100.465,100.47 c 8.289,8.29 21.719,8.29 30.008,0 8.293,-8.29 8.293,-21.72 0,-30.01 L 440.707,4025.04 c -4.144,-4.15 -9.574,-6.22 -15.008,-6.22"
         style="fill:#000000;fill-opacity:1;fill-rule:nonzero;stroke:none"
         id="path316" /><path
         d="m 632.281,4008.92 c -5.426,0 -10.863,2.08 -15.004,6.22 -8.289,8.29 -8.289,21.72 0,30.01 l 168.731,168.74 c 8.293,8.29 21.726,8.29 30.015,0 8.293,-8.3 8.293,-21.73 0,-30.02 L 647.289,4015.14 c -4.144,-4.14 -9.574,-6.22 -15.008,-6.22"
         style="fill:#000000;fill-opacity:1;fill-rule:nonzero;stroke:none"
         id="path318" /><path
         d="m 722.844,3890.06 c -5.434,0 -10.864,2.08 -15.008,6.22 -8.293,8.29 -8.293,21.72 0,30.01 l 166.961,166.96 c 8.293,8.3 21.719,8.3 30.012,0 8.289,-8.29 8.289,-21.72 0,-30.01 L 737.852,3896.28 c -4.149,-4.14 -9.579,-6.22 -15.008,-6.22"
         style="fill:#000000;fill-opacity:1;fill-rule:nonzero;stroke:none"
         id="path320" /></g></g></svg>
