<?xml version="1.0" encoding="utf-8"?>
<!-- Generator: Adobe Illustrator 25.0.0, SVG Export Plug-In . SVG Version: 6.00 Build 0)  -->
<svg version="1.1" id="Layer_1" xmlns="http://www.w3.org/2000/svg" xmlns:xlink="http://www.w3.org/1999/xlink" x="0px" y="0px"
	 viewBox="0 0 40 40" style="enable-background:new 0 0 40 40;" xml:space="preserve">
<style type="text/css">
	.st0{fill:#BFBFBF;}
	.st1{fill:#E60012;}
	.st2{fill:#FFD1AE;}
	.st3{fill:#432918;}
	.st4{fill:#FFFFFF;}
	.st5{fill:#AD000E;}
	.st6{fill:#1D1D1B;}
	.st7{fill:#FFE3CE;}
	.st8{fill:none;stroke:#E60012;stroke-width:2;stroke-linecap:round;stroke-miterlimit:10;}
	.st9{fill:url(#SVGID_1_);}
	.st10{fill:#F5606A;}
	.st11{fill:#F9A0A6;}
	.st12{fill:#FF4469;}
	.st13{fill:url(#SVGID_2_);}
	.st14{fill:url(#SVGID_3_);}
	.st15{fill:none;stroke:#1D1D1B;stroke-linecap:round;stroke-miterlimit:10;}
	.st16{fill:#FF5369;}
	.st17{fill:none;stroke:#FFFFFF;stroke-linecap:round;stroke-miterlimit:10;}
	.st18{fill:none;stroke:#E60012;stroke-width:2;stroke-linecap:round;stroke-linejoin:round;stroke-miterlimit:10;}
	.st19{fill:#1878F3;}
	.st20{fill:#54ACED;}
	.st21{fill:#F30074;}
	.st22{filter:url(#Adobe_OpacityMaskFilter);}
	.st23{filter:url(#Adobe_OpacityMaskFilter_1_);}
	.st24{mask:url(#SVGID_4_);fill:url(#SVGID_5_);}
	.st25{fill:#FF0000;}
	.st26{fill:#9F32FF;}
	.st27{fill:#5865F2;}
	.st28{fill:#006699;}
	.st29{fill:#FECC47;}
	.st30{fill:#010101;}
	.st31{fill:#FF5300;}
	.st32{fill:#70D755;}
	.st33{fill:#FF9900;}
	.st34{fill-rule:evenodd;clip-rule:evenodd;}
	.st35{fill:#333333;}
	.st36{fill-rule:evenodd;clip-rule:evenodd;fill:#EE1D52;}
	.st37{fill-rule:evenodd;clip-rule:evenodd;fill:#FFFFFF;}
	.st38{fill-rule:evenodd;clip-rule:evenodd;fill:#69C9D0;}
	.st39{filter:url(#Adobe_OpacityMaskFilter_2_);}
	.st40{filter:url(#Adobe_OpacityMaskFilter_3_);}
	.st41{mask:url(#SVGID_6_);fill:url(#SVGID_7_);}
	.st42{fill:#6BCDFD;}
	.st43{fill:url(#SVGID_8_);}
	.st44{fill:none;stroke:#1D1D1B;stroke-width:2;stroke-linecap:round;stroke-miterlimit:10;}
	.st45{fill:#58AEFF;}
	.st46{fill:url(#SVGID_9_);}
	.st47{fill:url(#SVGID_10_);}
	.st48{fill:url(#SVGID_11_);}
	.st49{fill:url(#SVGID_12_);}
	.st50{fill:none;stroke:#E60012;stroke-width:2;stroke-miterlimit:10;}
	.st51{fill:none;stroke:#E60012;stroke-width:4;stroke-linecap:round;stroke-miterlimit:10;}
	.st52{fill:none;stroke:#6BCDFD;stroke-width:4;stroke-linecap:round;stroke-linejoin:round;stroke-miterlimit:10;}
</style>
<g>
	<circle class="st20" cx="20" cy="20" r="20"/>
	<path id="XMLID_4_" class="st4" d="M30,13.89c-0.74,0.32-1.53,0.54-2.36,0.64c0.85-0.5,1.5-1.29,1.8-2.23
		c-0.79,0.46-1.67,0.8-2.61,0.98c-0.75-0.79-1.81-1.28-3-1.28c-2.27,0-4.1,1.81-4.1,4.04c0,0.32,0.04,0.62,0.11,0.92
		c-3.41-0.17-6.43-1.78-8.46-4.22c-0.35,0.6-0.56,1.29-0.56,2.03c0,1.4,0.72,2.64,1.83,3.36c-0.67-0.02-1.31-0.2-1.86-0.51
		c0,0.02,0,0.03,0,0.05c0,1.96,1.41,3.59,3.29,3.96c-0.34,0.09-0.71,0.14-1.08,0.14c-0.26,0-0.52-0.03-0.77-0.07
		c0.52,1.6,2.04,2.77,3.83,2.81c-1.4,1.08-3.17,1.73-5.1,1.73c-0.33,0-0.66-0.02-0.98-0.06c1.82,1.15,3.97,1.81,6.29,1.81
		c7.55,0,11.67-6.15,11.67-11.49c0-0.18,0-0.35-0.01-0.52C28.75,15.41,29.45,14.7,30,13.89z"/>
</g>
</svg>
